<svg width="40" height="40" viewBox="0 0 40 40" fill="none" xmlns="http://www.w3.org/2000/svg">
<g clip-path="url(#clip0)">
<path d="M38.9001 17.4L22.6 1.1C21.9 0.4 21 0 20 0C19 0 18.1 0.4 17.4 1.1L1.10005 17.4C-0.299951 18.8 -0.299951 21.2 1.10005 22.6C1.80005 23.3 2.60005 23.6 3.50005 23.7H3.60005H4.30005V35.7C4.30005 38.1 6.20005 40 8.60005 40H15C15.6 40 16.2001 39.5 16.2001 38.8V29.4C16.2001 28.3 17.1 27.4 18.2001 27.4H22C23.1 27.4 24 28.3 24 29.4V38.8C24 39.4 24.5 40 25.2001 40H31.6C34 40 35.9001 38.1 35.9001 35.7V23.7H36.5C37.5 23.7 38.4 23.3 39.1 22.6C40.4 21.2 40.4001 18.8 38.9001 17.4Z" fill="#020203"/>
</g>
<defs>
<clipPath id="clip0">
<rect width="40" height="40" fill="white"/>
</clipPath>
</defs>
</svg>
