<svg width="40" height="40" viewBox="0 0 40 40" fill="none" xmlns="http://www.w3.org/2000/svg">
<g clip-path="url(#clip0)">
<path d="M38.9001 17.4L22.6 1.1C21.9 0.4 21 0 20 0C19 0 18.1 0.4 17.4 1.1L1.10005 17.4C-0.299951 18.8 -0.299951 21.2 1.10005 22.6C1.80005 23.3 2.60005 23.6 3.50005 23.7H3.60005H4.30005V35.7C4.30005 38.1 6.20005 40 8.60005 40H15C15.6 40 16.2001 39.5 16.2001 38.8V29.4C16.2001 28.3 17.1 27.4 18.2001 27.4H22C23.1 27.4 24 28.3 24 29.4V38.8C24 39.4 24.5 40 25.2001 40H31.6C34 40 35.9001 38.1 35.9001 35.7V23.7H36.5C37.5 23.7 38.4 23.3 39.1 22.6C40.4 21.2 40.4001 18.8 38.9001 17.4ZM37.3 20.9C37 21.2 36.7001 21.3 36.4001 21.3H34.6C34 21.3 33.4001 21.8 33.4001 22.5V35.7C33.4001 36.8 32.5 37.7 31.4 37.7H26.2001V29.5C26.2001 27.1 24.3 25.2 21.9 25.2H18.1C15.7001 25.2 13.8 27.1 13.8 29.5V37.7H8.60005C7.50005 37.7 6.60005 36.8 6.60005 35.7V22.5C6.60005 21.9 6.10005 21.3 5.40005 21.3H3.70005C3.70005 21.3 3.70005 21.3 3.60005 21.3C3.30005 21.3 2.90005 21.2 2.70005 20.9C2.20005 20.4 2.20005 19.5 2.70005 19L19.1 2.7C19.4 2.4 19.7001 2.3 20 2.3C20.4 2.3 20.7 2.4 20.9 2.7L37.3 19C37.8 19.6 37.8 20.4 37.3 20.9Z" fill="#020203"/>
</g>
<defs>
<clipPath id="clip0">
<rect width="40" height="40" fill="white"/>
</clipPath>
</defs>
</svg>
