<svg width="40" height="40" viewBox="0 0 40 40" fill="none" xmlns="http://www.w3.org/2000/svg">
<path d="M13 25.8001H34C34.5 25.8001 35 25.5001 35.0999 25.0001L39.7 8.8001C39.7999 8.4001 39.7 8.1001 39.5 7.8001C39.2999 7.5001 38.8999 7.3001 38.5999 7.3001H10.4L9.49995 3.5001C9.39995 3.0001 8.89995 2.6001 8.39995 2.6001H1.39995C0.799951 2.6001 0.199951 3.1001 0.199951 3.8001C0.199951 4.4001 0.699951 5.0001 1.39995 5.0001H7.49995L11.7 23.9001C10.5 24.4001 9.59995 25.7001 9.59995 27.1001C9.59995 29.0001 11.2 30.6001 13.1 30.6001H34.0999C34.6999 30.6001 35.2999 30.1001 35.2999 29.4001C35.2999 28.8001 34.7999 28.2001 34.0999 28.2001H13C12.4 28.2001 11.8 27.7001 11.8 27.0001C11.8 26.3001 12.4 25.8001 13 25.8001Z" fill="#020203"/>
<path d="M11.8999 33.8999C11.8999 35.7999 13.4999 37.3999 15.3999 37.3999C17.2999 37.3999 18.8999 35.7999 18.8999 33.8999C18.8999 31.9999 17.2999 30.3999 15.3999 30.3999C13.3999 30.3999 11.8999 31.9999 11.8999 33.8999Z" fill="#020203"/>
<path d="M28.2 33.8999C28.2 35.7999 29.8 37.3999 31.7 37.3999C33.6 37.3999 35.2 35.7999 35.2 33.8999C35.2 31.9999 33.6 30.3999 31.7 30.3999C29.8 30.3999 28.2 31.9999 28.2 33.8999Z" fill="#020203"/>
</svg>
