<svg width="26" height="26" viewBox="0 0 26 26" fill="none" xmlns="http://www.w3.org/2000/svg">
<circle cx="13" cy="13" r="13" fill="#FFEBD0"/>
<path d="M13 26C9.5 26 6.3 24.6 3.8 22.2C1.3 19.8 0 16.5 0 13C0 9.5 1.4 6.3 3.8 3.8C6.2 1.3 9.5 0 13 0C16.5 0 19.7 1.4 22.2 3.8C24.7 6.2 26 9.5 26 13C26 16.5 24.6 19.7 22.2 22.2C19.8 24.7 16.5 26 13 26ZM13 1.6C6.7 1.6 1.6 6.7 1.6 13C1.6 19.3 6.7 24.4 13 24.4C19.3 24.4 24.4 19.3 24.4 13C24.4 6.7 19.3 1.6 13 1.6Z" fill="#F7B55B"/>
<path d="M13 12.2C11.9 12.2 11 11.3 11 10.2C11 9.09999 11.9 8.19999 13 8.19999C14.1 8.19999 15 9.09999 15 10.2C15 10.6 15.4 11 15.8 11C16.2 11 16.6 10.6 16.6 10.2C16.6 8.49999 15.4 6.99999 13.8 6.59999V5.69999C13.8 5.29999 13.4 4.89999 13 4.89999C12.6 4.89999 12.2 5.29999 12.2 5.69999V6.59999C10.6 6.99999 9.30005 8.39999 9.30005 10.2C9.30005 12.2 10.9 13.9 13 13.9C14.1 13.9 15 14.8 15 15.9C15 17 14.1 17.9 13 17.9C11.9 17.9 11 17 11 15.9C11 15.5 10.6 15.1 10.2 15.1C9.80005 15.1 9.40005 15.5 9.40005 15.9C9.40005 17.6 10.6 19.1 12.2 19.5V20.4C12.2 20.8 12.6 21.2 13 21.2C13.4 21.2 13.8 20.8 13.8 20.4V19.5C15.4 19.1 16.6 17.7 16.6 15.9C16.7 13.8 15 12.2 13 12.2Z" fill="#F7B55B"/>
</svg>
