<?xml version="1.0" encoding="utf-8"?>
<!-- Generator: Adobe Illustrator 24.1.2, SVG Export Plug-In . SVG Version: 6.00 Build 0)  -->
<svg version="1.1" id="Слой_1" xmlns="http://www.w3.org/2000/svg" xmlns:xlink="http://www.w3.org/1999/xlink" x="0px" y="0px"
	 viewBox="0 0 26 26" style="enable-background:new 0 0 26 26;" xml:space="preserve">
<style type="text/css">
	.st0{fill:#F7B55B;}
</style>
<g>
	<path class="st0" d="M13,26c-3.5,0-6.7-1.4-9.2-3.8S0,16.5,0,13s1.4-6.7,3.8-9.2S9.5,0,13,0s6.7,1.4,9.2,3.8S26,9.5,26,13
		s-1.4,6.7-3.8,9.2S16.5,26,13,26L13,26z M13,1.6C6.7,1.6,1.6,6.7,1.6,13S6.7,24.4,13,24.4S24.4,19.3,24.4,13S19.3,1.6,13,1.6z"/>
	<path class="st0" d="M13,12.2c-1.1,0-2-0.9-2-2s0.9-2,2-2s2,0.9,2,2c0,0.4,0.4,0.8,0.8,0.8c0.4,0,0.8-0.4,0.8-0.8
		c0-1.7-1.2-3.2-2.8-3.6V5.7c0-0.4-0.4-0.8-0.8-0.8s-0.8,0.4-0.8,0.8v0.9C10.6,7,9.3,8.4,9.3,10.2c0,2,1.6,3.7,3.7,3.7
		c1.1,0,2,0.9,2,2s-0.9,2-2,2s-2-0.9-2-2c0-0.4-0.4-0.8-0.8-0.8s-0.8,0.4-0.8,0.8c0,1.7,1.2,3.2,2.8,3.6v0.9c0,0.4,0.4,0.8,0.8,0.8
		s0.8-0.4,0.8-0.8v-0.9c1.6-0.4,2.8-1.8,2.8-3.6C16.7,13.8,15,12.2,13,12.2z"/>
</g>
</svg>
