<svg width="26" height="26" viewBox="0 0 26 26" fill="none" xmlns="http://www.w3.org/2000/svg">
<g clip-path="url(#clip0)">
<path d="M25.7 24.2L18.3 16.8C19.7 15 20.6 12.8 20.6 10.3C20.6 4.6 16 0 10.3 0C4.6 0 0 4.6 0 10.3C0 16 4.6 20.6 10.3 20.6C12.7 20.6 15 19.7 16.8 18.3L24.2 25.7C24.4 25.9 24.7 26 25 26C25.3 26 25.6 25.9 25.8 25.7C26.1 25.3 26.1 24.6 25.7 24.2ZM10.3 18.4C5.8 18.4 2.2 14.8 2.2 10.3C2.2 5.8 5.8 2.2 10.3 2.2C14.8 2.2 18.4 5.8 18.4 10.3C18.4 14.8 14.8 18.4 10.3 18.4Z" fill="#020203"/>
</g>
<defs>
<clipPath id="clip0">
<rect width="26" height="26" fill="white"/>
</clipPath>
</defs>
</svg>
