<svg width="26" height="26" viewBox="0 0 26 26" fill="none" xmlns="http://www.w3.org/2000/svg">
<g clip-path="url(#clip0)">
<path d="M23.4 3.1L13.2 0C13.1 0 12.9 0 12.8 0L2.6 3.1C2.2 3.2 2 3.5 2 3.8V15C2 16.5 2.6 18 3.8 19.5C4.7 20.6 5.9 21.8 7.5 22.9C10.1 24.8 12.6 25.9 12.7 26C12.8 26 12.9 26.1 13 26.1C13.1 26.1 13.2 26.1 13.3 26C13.4 26 16 24.8 18.5 22.9C20 21.8 21.3 20.6 22.2 19.5C23.4 18 24 16.5 24 15V3.8C24 3.5 23.8 3.2 23.4 3.1ZM22.5 15C22.5 17.6 19.9 20 17.7 21.6C15.7 23 13.8 24 13 24.4C12.3 24 10.3 23 8.3 21.6C6.1 20 3.5 17.6 3.5 15V4.4L13 1.5L22.5 4.3V15Z" fill="#591210"/>
<path d="M20.6999 5.60005L13.0999 3.30005C12.9999 3.30005 12.8999 3.30005 12.7999 3.30005L5.2999 5.60005C4.9999 5.70005 4.8999 5.90005 4.8999 6.20005V14.5C4.8999 15.6 5.2999 16.7 6.1999 17.8C6.8999 18.6 7.7999 19.5 8.8999 20.3C10.7999 21.7 12.6999 22.5 12.7999 22.6C12.8999 22.6 12.9999 22.6 12.9999 22.6C13.0999 22.6 13.1999 22.6 13.1999 22.6C13.2999 22.6 15.1999 21.7 17.0999 20.3C18.1999 19.5 19.1999 18.6 19.7999 17.8C20.6999 16.7 21.0999 15.6 21.0999 14.5V6.20005C21.0999 5.90005 20.9999 5.70005 20.6999 5.60005ZM19.9999 14.5C19.9999 16.4 18.0999 18.2 16.4999 19.4C15.0999 20.5 13.5999 21.2001 12.9999 21.5C12.3999 21.2001 10.9999 20.5 9.4999 19.4C7.8999 18.2 5.9999 16.4 5.9999 14.5V6.60005L12.9999 4.50005L19.9999 6.60005V14.5Z" fill="#591210"/>
<path d="M13 3.80005C13 5.80005 13 7.80005 13 9.80005V3.80005Z" fill="#591210"/>
<path d="M13 3.80005C13 5.80005 13 7.80005 13 9.80005" stroke="#591210" stroke-miterlimit="10" stroke-linecap="round" stroke-linejoin="round"/>
<path d="M13.55 11.8501C13.15 11.8501 12.85 11.8501 12.45 11.8501L13.55 11.8501Z" fill="#591210"/>
<path d="M13.55 11.8501C13.15 11.8501 12.85 11.8501 12.45 11.8501" stroke="#591210" stroke-miterlimit="10" stroke-linecap="round" stroke-linejoin="round"/>
<path d="M13 14C13 16.6 13 19.2 13 21.8V14Z" fill="#591210"/>
<path d="M13 14C13 16.6 13 19.2 13 21.8" stroke="#591210" stroke-miterlimit="10" stroke-linecap="round" stroke-linejoin="round"/>
</g>
<defs>
<clipPath id="clip0">
<rect width="26" height="26" fill="white"/>
</clipPath>
</defs>
</svg>
