<svg width="40" height="40" viewBox="0 0 40 40" fill="none" xmlns="http://www.w3.org/2000/svg">
<g clip-path="url(#clip0)">
<path d="M38.7 17.8001L37.4 16.5001C37.2 15.8001 37 15.0001 36.8 14.4001L37.5 11.8001C37.7 11.2001 37.6 10.6001 37.3 10.1001C37 9.6001 36.5 9.2001 35.9 9.0001L33.3 8.3001C32.8 7.8001 32.3 7.2001 31.8 6.8001L31 4.2001C30.7 3.0001 29.4 2.3001 28.2 2.6001L25.6 3.3001C24.9 3.1001 24.2 2.8001 23.5 2.7001L21.6 0.800098C21.2 0.400098 20.6 0.100098 20 0.100098C19.4 0.100098 18.8 0.300098 18.4 0.800098L16.5 2.7001C15.8 2.9001 15 3.1001 14.4 3.3001L11.8 2.6001C10.6 2.3001 9.3 3.0001 9 4.2001L8.3 6.8001C7.8 7.3001 7.2 7.8001 6.8 8.3001L4.2 9.0001C3.6 9.2001 3.1 9.5001 2.8 10.1001C2.5 10.6001 2.4 11.2001 2.6 11.8001L3.3 14.4001C3.1 15.1001 2.8 15.8001 2.7 16.5001L1.4 17.8001C0.2 19.0001 0.2 21.0001 1.4 22.2001L2.7 23.5001C2.8 24.3001 3 25.0001 3.3 25.7001L2.6 28.3001C2.4 28.9001 2.5 29.5001 2.8 30.0001C3.1 30.5001 3.6 30.9001 4.2 31.1001L6.8 31.8001C7.3 32.3001 7.8 32.9001 8.3 33.3001L9 35.9001C9.2 36.5001 9.5 37.0001 10.1 37.3001C10.6 37.6001 11.2 37.7001 11.8 37.5001L14.4 36.8001C15.1 37.0001 15.8 37.3001 16.5 37.4001L18.4 39.3001C18.8 39.7001 19.4 40.0001 20 40.0001C20.6 40.0001 21.2 39.8001 21.6 39.3001L23.5 37.3001C24.2 37.2001 24.9 37.0001 25.6 36.7001L28.2 37.4001C28.8 37.6001 29.4 37.5001 29.9 37.2001C30.4 36.9001 30.8 36.4001 31 35.8001L31.7 33.2001C32.2 32.7001 32.8 32.2001 33.2 31.7001L35.8 31.0001C36.4 30.8001 36.9 30.5001 37.2 29.9001C37.5 29.4001 37.6 28.8001 37.4 28.2001L36.7 25.6001C36.9 24.9001 37.2 24.2001 37.3 23.5001L38.6 22.2001C39.9 21.0001 39.9 19.1001 38.7 17.8001ZM37 20.6001L35.6 22.0001C35.3 22.3001 35.1 22.6001 35.1 23.0001C35 23.6001 34.8 24.3001 34.5 25.0001C34.4 25.4001 34.3 25.8001 34.5 26.2001L35.2 28.8001L32.6 29.5001C32.2 29.6001 31.9 29.8001 31.6 30.1001C31.1 30.6001 30.7 31.1001 30.1 31.6001C29.8 31.9001 29.6 32.2001 29.5 32.6001L28.8 35.2001L26.2 34.5001C25.8 34.4001 25.4 34.4001 25 34.5001C24.4 34.7001 23.7 34.9001 23 35.0001C22.6 35.1001 22.2 35.3001 21.9 35.6001L20 37.6001L18.1 35.7001C17.8 35.4001 17.5 35.2001 17.1 35.2001C16.5 35.1001 15.8 34.9001 15.1 34.6001C14.9 34.5001 14.7 34.5001 14.4 34.5001C14.2 34.5001 14.1 34.5001 13.9 34.6001L11.3 35.3001L10.6 32.7001C10.5 32.3001 10.3 32.0001 10 31.7001C9.5 31.2001 9 30.8001 8.5 30.2001C8.2 29.9001 7.9 29.7001 7.5 29.6001L4.9 28.9001L5.6 26.3001C5.7 25.9001 5.7 25.5001 5.6 25.1001C5.3 24.4001 5.1 23.7001 5 23.1001C4.9 22.7001 4.7 22.4001 4.5 22.1001L3 20.6001C2.7 20.3001 2.7 19.8001 3 19.5001L4.4 18.1001C4.7 17.8001 4.9 17.5001 4.9 17.1001C5 16.5001 5.2 15.8001 5.5 15.1001C5.6 14.7001 5.7 14.3001 5.5 13.9001L4.8 11.3001L7.4 10.6001C7.8 10.5001 8.1 10.3001 8.4 10.0001C8.9 9.5001 9.3 9.0001 9.9 8.5001C10.2 8.2001 10.4 7.9001 10.5 7.5001L11.2 4.9001L13.8 5.6001C14.2 5.7001 14.6 5.7001 15 5.6001C15.7 5.3001 16.4 5.1001 17 5.0001C17.4 4.9001 17.7 4.7001 18 4.5001L20 2.5001L21.9 4.4001C22.2 4.7001 22.5 4.9001 22.9 4.9001C23.5 5.0001 24.2 5.2001 24.9 5.5001C25.3 5.6001 25.7 5.7001 26.1 5.5001L28.7 4.8001L29.4 7.4001C29.5 7.8001 29.7 8.1001 30 8.4001C30.5 8.9001 31 9.3001 31.5 9.9001C31.8 10.2001 32.1 10.4001 32.5 10.5001L35.1 11.2001L34.4 13.8001C34.3 14.2001 34.3 14.6001 34.4 15.0001C34.7 15.7001 34.9 16.4001 35 17.0001C35.1 17.4001 35.3 17.7001 35.5 18.0001L36.9 19.4001C37.3 19.8001 37.3 20.3001 37 20.6001Z" fill="#020203"/>
<path d="M19.8999 7.1001C12.6999 7.1001 6.8999 12.9001 6.8999 20.1001C6.8999 27.3001 12.6999 33.1001 19.8999 33.1001C27.0999 33.1001 32.8999 27.3001 32.8999 20.1001C32.8999 12.9001 27.0999 7.1001 19.8999 7.1001ZM19.8999 30.7001C13.9999 30.7001 9.2999 25.9001 9.2999 20.0001C9.2999 14.1001 13.9999 9.4001 19.8999 9.4001C25.7999 9.4001 30.5999 14.2001 30.5999 20.0001C30.5999 25.8001 25.7999 30.7001 19.8999 30.7001Z" fill="#020203"/>
<path d="M25.2 16.7H22.4L21.5 14C21.3 13.3 20.6 12.8 19.9 12.8C19.1 12.8 18.5 13.3 18.3 14L17.4 16.7H14.6C13.8 16.7 13.2 17.2 13 17.9C12.8 18.6 13 19.4 13.6 19.8L15.9 21.5L15 24.2C14.8 24.9 15 25.7 15.6 26.1C16.2 26.5 17 26.5 17.6 26.1L19.9 24.4L22.2 26.1C22.5 26.3 22.9 26.4 23.2 26.4C23.6 26.4 23.9 26.3 24.2 26.1C24.8 25.7 25.1 24.9 24.8 24.2L24 21.5L26.3 19.8C26.9 19.4 27.2 18.6 26.9 17.9C26.7 17.2 26 16.7 25.2 16.7ZM22.3 19.9C21.7 20.3 21.4 21.1 21.7 21.8L22.1 23.1L21 22.3C20.4 21.9 19.6 21.9 19 22.3L17.9 23.1L18.3 21.8C18.5 21.1 18.3 20.3 17.7 19.9L16.6 19.1H18C18.8 19.1 19.4 18.6 19.6 17.9L20 16.6L20.4 17.9C20.6 18.6 21.3 19.1 22 19.1H23.4L22.3 19.9Z" fill="#020203"/>
</g>
<defs>
<clipPath id="clip0">
<rect width="40" height="40" fill="white"/>
</clipPath>
</defs>
</svg>
