<?xml version="1.0" encoding="utf-8"?>
<!-- Generator: Adobe Illustrator 24.1.2, SVG Export Plug-In . SVG Version: 6.00 Build 0)  -->
<svg version="1.1" id="Слой_1" xmlns="http://www.w3.org/2000/svg" xmlns:xlink="http://www.w3.org/1999/xlink" x="0px" y="0px"
	 viewBox="0 0 78 78" style="enable-background:new 0 0 78 78;" xml:space="preserve">
<style type="text/css">
	.st0{fill:#F7B55B;}
</style>
<path class="st0" d="M78,27.7c0-4.1-3.3-7.4-7.4-7.4c-4.1,0-7.4,3.3-7.4,7.4c0,2,0.8,3.7,2,5.1c-2.2,2.5-5.5,4.1-9.1,4.1
	c-5.8,0-10.7-4.1-11.9-9.6c1.4-1.3,2.2-3.2,2.2-5.3c0-4.1-3.3-7.4-7.4-7.4s-7.4,3.3-7.4,7.4c0,2.1,0.8,3.9,2.2,5.3
	c-1.2,5.5-6.1,9.6-11.9,9.6c-3.6,0-6.8-1.6-9.1-4.1c1.3-1.3,2-3.1,2-5.1c0-4.1-3.3-7.4-7.4-7.4S0,23.6,0,27.7c0,3.5,2.5,6.5,5.8,7.2
	c0.8,6.5,2.5,14.7,6,20.2v6.8c0,1.3,1,2.3,2.3,2.3h49.7c1.3,0,2.3-1,2.3-2.3v-6.8c3.5-5.6,5.2-13.8,6-20.2
	C75.5,34.2,78,31.2,78,27.7z M67.7,27.7c0-1.6,1.3-2.8,2.8-2.8s2.8,1.3,2.8,2.8s-1.3,2.8-2.8,2.8S67.7,29.2,67.7,27.7z M36.2,22
	c0-1.6,1.3-2.8,2.8-2.8s2.8,1.3,2.8,2.8s-1.3,2.8-2.8,2.8S36.2,23.5,36.2,22z M4.6,27.7c0-1.6,1.3-2.8,2.8-2.8s2.8,1.3,2.8,2.8
	S9,30.5,7.4,30.5S4.6,29.2,4.6,27.7z M16.4,59.6v-2.9h45.1v2.9H16.4z M62.6,52.1H15.4c-2.4-4.1-3.8-9.8-4.6-15
	c3,2.6,6.8,4.2,11.1,4.2c7.6,0,14.1-5.1,16.1-12.1c0.3,0,0.7,0.1,1,0.1s0.7,0,1-0.1c2,7,8.5,12.1,16.1,12.1c4.3,0,8.1-1.6,11.1-4.2
	C66.4,42.3,65,48.1,62.6,52.1z"/>
</svg>
