<?xml version="1.0" encoding="utf-8"?>
<!-- Generator: Adobe Illustrator 24.1.2, SVG Export Plug-In . SVG Version: 6.00 Build 0)  -->
<svg version="1.1" id="Слой_1" xmlns="http://www.w3.org/2000/svg" xmlns:xlink="http://www.w3.org/1999/xlink" x="0px" y="0px"
	 viewBox="0 0 102 102" style="enable-background:new 0 0 102 102;" xml:space="preserve">
<style type="text/css">
	.st0{fill:#F7B55B;}
</style>
<path class="st0" d="M101.8,35.7c0-5.3-4.3-9.6-9.7-9.6s-9.7,4.3-9.7,9.6c0,2.6,1,4.9,2.6,6.6c-2.9,3.2-7.1,5.3-11.8,5.3
	c-7.6,0-14-5.3-15.5-12.5c1.8-1.7,2.9-4.2,2.9-6.8c0-5.3-4.3-9.6-9.7-9.6s-9.7,4.3-9.7,9.6c0,2.7,1.1,5.1,2.9,6.8
	c-1.5,7.1-7.9,12.5-15.5,12.5c-4.7,0-8.9-2-11.8-5.3c1.6-1.7,2.6-4,2.6-6.6c0-5.3-4.3-9.6-9.7-9.6s-9.7,4.3-9.7,9.6
	c0,4.6,3.3,8.5,7.6,9.4c1,8.5,3.2,19.1,7.8,26.4v8.9c0,1.6,1.3,3,3,3h64.8c1.7,0,3-1.3,3-3v-8.9c4.6-7.3,6.8-17.9,7.8-26.4
	C98.5,44.2,101.8,40.3,101.8,35.7z M88.4,35.7c0-2,1.7-3.7,3.7-3.7s3.7,1.6,3.7,3.7s-1.7,3.7-3.7,3.7S88.4,37.7,88.4,35.7z
	 M47.3,28.3c0-2,1.7-3.7,3.7-3.7c2,0,3.7,1.6,3.7,3.7S53,31.9,51,31.9C49,31.9,47.3,30.3,47.3,28.3z M6.2,35.7c0-2,1.7-3.7,3.7-3.7
	s3.7,1.6,3.7,3.7s-1.7,3.7-3.7,3.7S6.2,37.7,6.2,35.7z M21.6,77.4v-3.8h58.8v3.8H21.6z M81.7,67.6H20.3c-3.1-5.3-5-12.8-6-19.5
	c3.9,3.4,8.9,5.5,14.5,5.5c9.9,0,18.4-6.7,21-15.7c0.4,0.1,0.9,0.1,1.3,0.1s0.9,0,1.3-0.1c2.6,9.1,11,15.7,21,15.7
	c5.5,0,10.6-2.1,14.5-5.5C86.7,54.8,84.9,62.3,81.7,67.6z"/>
</svg>
