<?xml version="1.0" encoding="utf-8"?>
<!-- Generator: Adobe Illustrator 24.1.2, SVG Export Plug-In . SVG Version: 6.00 Build 0)  -->
<svg version="1.1" id="Слой_1" xmlns="http://www.w3.org/2000/svg" xmlns:xlink="http://www.w3.org/1999/xlink" x="0px" y="0px"
	 viewBox="0 0 78 78" style="enable-background:new 0 0 78 78;" xml:space="preserve">
<style type="text/css">
	.st0{fill:#8DCEF3;}
</style>
<path class="st0" d="M77.5,36.3l-2.6-4.7c-0.4-0.7-1.3-1-2.1-0.6c-0.7,0.4-1,1.3-0.6,2.1l2.6,4.7c0.1,0.2,0.1,0.5,0.1,0.6
	c0,0.1-0.1,0.3-0.3,0.4L70.5,41c-0.4,0.2-0.8,0.1-1-0.3l-1-1.8c0,0,0,0,0,0l-10.7-19c-0.1-0.2-0.1-0.5-0.1-0.6
	c0-0.1,0.1-0.3,0.3-0.4l4.1-2.3c0.4-0.2,0.8-0.1,1,0.3l2.4,4.2c0.4,0.7,1.3,1,2.1,0.6c0.7-0.4,1-1.3,0.6-2.1l-2.4-4.2
	c-1-1.8-3.3-2.5-5.2-1.4l-4.1,2.3c-0.9,0.5-1.5,1.3-1.8,2.3c-0.3,0.9-0.2,1.9,0.3,2.7l-2.2,0.7c-1,0.3-1.5,0.4-1.9,0.4c0,0,0,0,0,0
	c-0.2,0-0.5-0.1-1.2-0.3c-0.3-0.1-0.7-0.3-1.2-0.4l-4-1.4c-2.2-0.8-3.2-0.7-4.6-0.6l-6.8,0.6c-3.1,0.3-5.1,1-6.2,2.2L23,21.3
	c0.4-0.8,0.5-1.8,0.2-2.7c-0.3-1-0.9-1.8-1.8-2.3L17.4,14c-1.8-1-4.1-0.4-5.2,1.4L0.5,36.3c-0.5,0.9-0.6,1.9-0.4,2.9
	c0.3,1,0.9,1.8,1.8,2.3L6,43.7c0.6,0.3,1.2,0.5,1.8,0.5c1.3,0,2.6-0.7,3.3-1.9l0.4-0.8c1.2,0.5,2.2,1.3,2.8,2.2
	c-0.7,0.8-1.1,1.7-1.2,2.7c-0.2,1.4,0.2,2.7,1.1,3.8c0.8,1.1,2.1,1.7,3.4,1.9c-0.1,1.4,0.2,2.7,1.1,3.7c0.9,1.1,2.1,1.7,3.4,1.9
	c-0.1,1.4,0.2,2.7,1.1,3.7c0.8,1.1,2.1,1.7,3.4,1.9C26.6,64.6,27,66,27.8,67c1,1.3,2.5,1.9,4,1.9c1.1,0,2.3-0.4,3.2-1.1l3.2-2.6
	c0.3-0.2,0.5-0.4,0.7-0.7l1.8,1.5c0.9,0.8,2.1,1.1,3.2,1.1c1.5,0,3-0.7,4-1.9c0.5-0.7,0.9-1.4,1-2.2c0.5,0.2,1.1,0.3,1.7,0.3
	c0.2,0,0.4,0,0.6,0c1.4-0.2,2.6-0.8,3.4-1.9c0.8-1.1,1.2-2.4,1.1-3.7c1.3-0.2,2.5-0.8,3.4-1.9c0.9-1.1,1.2-2.4,1.1-3.7
	c1.4-0.2,2.6-0.8,3.4-1.9c0.9-1.1,1.2-2.4,1.1-3.8c-0.1-1-0.5-2-1.2-2.8c0.7-0.9,1.7-1.6,2.8-2.2l0.4,0.8c0.7,1.2,2,1.9,3.3,1.9
	c0.6,0,1.3-0.2,1.8-0.5l4.1-2.3c0.9-0.5,1.5-1.3,1.8-2.3C78.1,38.2,78,37.1,77.5,36.3L77.5,36.3z M8.5,40.7c-0.2,0.3-0.7,0.5-1,0.3
	l-4.1-2.3c-0.2-0.1-0.3-0.3-0.3-0.4C3,38.2,3,38,3.1,37.8L14.9,17c0.1-0.2,0.4-0.4,0.7-0.4c0.1,0,0.3,0,0.4,0.1l4.1,2.3c0,0,0,0,0,0
	c0.2,0.1,0.3,0.3,0.3,0.4c0,0.1,0.1,0.3-0.1,0.6L8.5,40.7z M19.6,48.6c-0.4,0.3-1,0.5-1.5,0.4c-0.6-0.1-1-0.3-1.4-0.8
	c-0.3-0.4-0.5-1-0.4-1.5c0.1-0.6,0.3-1,0.8-1.4l5.7-4.6c0.9-0.7,2.2-0.6,2.9,0.3c0.3,0.4,0.5,1,0.4,1.5c-0.1,0.6-0.3,1-0.8,1.4
	c0,0,0,0,0,0L19.6,48.6C19.6,48.6,19.6,48.6,19.6,48.6z M21.2,53.9c-0.3-0.4-0.5-1-0.4-1.5c0.1-0.6,0.3-1,0.8-1.4l0,0c0,0,0,0,0,0
	c0,0,0,0,0,0l8.2-6.6c0.9-0.7,2.2-0.6,2.9,0.3c0.3,0.4,0.5,1,0.4,1.5c-0.1,0.6-0.3,1-0.8,1.4l-8.2,6.6
	C23.3,54.9,21.9,54.8,21.2,53.9L21.2,53.9z M27.1,60.3c-0.6-0.1-1-0.3-1.4-0.8c-0.3-0.4-0.5-1-0.4-1.5c0.1-0.6,0.3-1,0.8-1.4
	c0,0,0,0,0,0l5.7-4.5c0,0,0,0,0,0c0.9-0.7,2.2-0.6,2.9,0.3c0.3,0.4,0.5,1,0.4,1.5c-0.1,0.6-0.3,1-0.8,1.4l-5.7,4.6
	C28.2,60.2,27.7,60.3,27.1,60.3L27.1,60.3z M37.1,61.5c-0.1,0.6-0.3,1-0.8,1.4l-3.2,2.6c-0.9,0.7-2.2,0.6-2.9-0.3
	c-0.3-0.4-0.5-1-0.4-1.5c0.1-0.6,0.3-1,0.8-1.4c0,0,0,0,0,0l3.2-2.5c0,0,0,0,0,0c0.9-0.7,2.2-0.6,2.9,0.3
	C37,60.4,37.2,60.9,37.1,61.5z M61.3,48.3c-0.3,0.4-0.8,0.7-1.4,0.8c-0.6,0.1-1.1-0.1-1.5-0.4c0,0,0,0,0,0c0,0,0,0,0,0l-4.1-3.3
	c-0.7-0.5-1.6-0.4-2.1,0.2c-0.5,0.7-0.4,1.6,0.2,2.1l4.1,3.3c0.9,0.7,1,2,0.3,2.9c-0.7,0.9-2,1-2.9,0.3l-4.4-3.5
	c-0.7-0.5-1.6-0.4-2.1,0.2c-0.5,0.7-0.4,1.6,0.2,2.1l4.4,3.5c0.4,0.3,0.7,0.8,0.8,1.4c0.1,0.6-0.1,1.1-0.4,1.5
	c-0.3,0.4-0.8,0.7-1.4,0.8c-0.6,0.1-1.1-0.1-1.5-0.4l-2.2-1.8c0,0,0,0,0,0l-1.9-1.5l-0.3-0.3c-0.7-0.5-1.6-0.4-2.1,0.2
	c-0.1,0.1-0.1,0.2-0.2,0.3c-0.2,0.4-0.2,0.9,0,1.4c0.1,0.2,0.2,0.4,0.4,0.5l2.2,1.8c0.9,0.7,1,2,0.3,2.9c-0.7,0.9-2,1-2.9,0.3
	l-2.5-2c0.1-1.3-0.3-2.6-1.1-3.6c-0.5-0.6-1.1-1.1-1.8-1.4c0.5-0.7,0.8-1.5,0.9-2.4c0.2-1.4-0.2-2.7-1.1-3.8
	c-0.5-0.6-1.1-1.1-1.8-1.4c0.5-0.7,0.8-1.5,0.9-2.4c0.2-1.4-0.2-2.7-1.1-3.8c-1.5-1.8-3.9-2.4-6-1.5c-0.2-0.8-0.5-1.5-1-2.1
	c-1.8-2.2-5-2.6-7.2-0.8l-4.1,3.3c-0.9-1.2-2.2-2.2-3.7-2.8L21.5,24l4.5,1.3c0,0.2,0.1,0.5,0.1,0.8c1.1,4.4,5.2,6.5,10.7,5.4
	c4.6-0.9,6.6,0.5,10.4,3.2c0.4,0.3,0.8,0.6,1.2,0.9c2.7,2,5.7,4.3,7.6,5.8l4.9,4c0.4,0.3,0.7,0.8,0.8,1.4
	C61.8,47.3,61.6,47.8,61.3,48.3L61.3,48.3z M61.2,41.7L57.9,39c-2-1.6-5-3.9-7.7-5.9c-0.4-0.3-0.8-0.6-1.2-0.9
	c-3.9-2.9-6.8-5-12.8-3.8c-1.8,0.4-6.2,0.8-7.1-3.1c-0.1-0.6,0-0.7,0.1-0.8c0.2-0.3,1-1,4.2-1.3l6.8-0.6c1.1-0.1,1.7-0.2,3.4,0.4
	l4,1.4c0.4,0.2,0.8,0.3,1.1,0.4c1.9,0.7,2.4,0.7,4.9,0l2.9-0.9l8.4,14.8C63.4,39.5,62.1,40.5,61.2,41.7z"/>
<path class="st0" d="M70.1,27.8c0.8,0,1.5-0.7,1.5-1.5s-0.7-1.5-1.5-1.5c-0.8,0-1.5,0.7-1.5,1.5v0C68.6,27.1,69.3,27.8,70.1,27.8z"
	/>
</svg>
