<?xml version="1.0" encoding="utf-8"?>
<!-- Generator: Adobe Illustrator 24.1.2, SVG Export Plug-In . SVG Version: 6.00 Build 0)  -->
<svg version="1.1" id="Слой_1" xmlns="http://www.w3.org/2000/svg" xmlns:xlink="http://www.w3.org/1999/xlink" x="0px" y="0px"
	 viewBox="0 0 62 62" style="enable-background:new 0 0 62 62;" xml:space="preserve">
<style type="text/css">
	.st0{fill:#99231C;}
</style>
<path class="st0" d="M44.8,10.4c-0.5-0.5-1.2-0.5-1.7,0c-0.5,0.5-0.5,1.2,0,1.7c0,0,0,0,0,0c0.5,0.4,1.2,0.4,1.7,0
	C45.2,11.7,45.2,10.9,44.8,10.4C44.8,10.4,44.8,10.4,44.8,10.4z"/>
<path class="st0" d="M58.5,3.5c-4.7-4.7-12.4-4.7-17.1,0L31.9,13c-3.4,3.4-4.5,8.5-2.7,13L26,29.1c-4.4-1.7-9.6-0.7-13,2.7l-9.5,9.5
	c-4.7,4.7-4.7,12.4,0,17.1c4.7,4.7,12.4,4.7,17.1,0l9.5-9.5c3.4-3.4,4.5-8.5,2.7-13l3.1-3.1c4.5,1.8,9.6,0.7,13-2.7l9.5-9.5
	C63.2,15.9,63.2,8.3,58.5,3.5z M28.4,47.3L19,56.7c-3.8,3.8-9.9,3.8-13.7,0C1.5,53,1.5,46.8,5.3,43l9.5-9.5c2.5-2.5,6.1-3.4,9.4-2.5
	l-3.4,3.4c-1.3,0.2-2.5,0.8-3.4,1.7l-9.5,9.5c-2.4,2.4-2.4,6.2,0,8.6c2.4,2.4,6.2,2.4,8.6,0l9.5-9.5c0.9-0.9,1.5-2.1,1.7-3.4
	l3.4-3.4C31.8,41.2,30.9,44.8,28.4,47.3z M19,43c1,1,2.3,1.5,3.7,1.4l-8.1,8.1c-1.4,1.4-3.7,1.4-5.1,0c-1.4-1.4-1.4-3.7,0-5.1
	l8.1-8.1C17.5,40.7,18,42,19,43z M25.6,39.9l-1.4,1.4c-0.9,0.9-2.5,0.9-3.4,0c-0.9-0.9-0.9-2.5,0-3.4l17.1-17.1
	c0.9-0.9,2.5-0.9,3.4,0c0.9,0.9,0.9,2.5,0,3.4L25.6,39.9z M47.3,28.4c-2.5,2.5-6.1,3.4-9.4,2.5l3.4-3.4c1.3-0.2,2.5-0.8,3.4-1.7
	c0,0,0,0,0,0l9.5-9.5c2.4-2.4,2.4-6.2,0-8.6c-2-2-5-2.3-7.4-0.9C46.2,7.2,46,8,46.4,8.5C46.7,9.1,47.5,9.3,48,9
	c1.4-0.8,3.2-0.6,4.4,0.6c1.4,1.4,1.4,3.7,0,5.1l-8.1,8.1C44.5,21.3,44,20,43,19c-0.9-0.9-2.1-1.4-3.4-1.4c-0.1,0-0.2,0-0.3,0
	l2.1-2.1c0.5-0.5,0.5-1.2,0-1.7c-0.5-0.5-1.2-0.5-1.7,0l-3.5,3.5c-0.9,0.9-1.5,2.1-1.7,3.4l-3.4,3.4c-0.9-3.3,0-6.9,2.5-9.4L43,5.3
	c3.8-3.8,9.9-3.8,13.7,0c3.8,3.8,3.8,9.9,0,13.7L47.3,28.4z"/>
<path class="st0" d="M19.9,19.9c0.5-0.5,0.5-1.2,0-1.7L14.7,13c-0.5-0.5-1.2-0.5-1.7,0s-0.5,1.2,0,1.7l5.1,5.1
	C18.6,20.3,19.4,20.3,19.9,19.9z"/>
<path class="st0" d="M6.5,25.1c0,0.7,0.5,1.2,1.2,1.2h7.3c0.7,0,1.2-0.5,1.2-1.2s-0.5-1.2-1.2-1.2H7.7C7,23.9,6.5,24.4,6.5,25.1z"/>
<path class="st0" d="M26.3,14.9V7.7c0-0.7-0.5-1.2-1.2-1.2S23.9,7,23.9,7.7v7.3c0,0.7,0.5,1.2,1.2,1.2S26.3,15.6,26.3,14.9z"/>
<path class="st0" d="M42.1,42.1c-0.5,0.5-0.5,1.2,0,1.7l5.1,5.1c0.5,0.5,1.2,0.5,1.7,0c0.5-0.5,0.5-1.2,0-1.7l-5.1-5.1
	C43.4,41.7,42.6,41.7,42.1,42.1z"/>
<path class="st0" d="M35.8,47.1v7.3c0,0.7,0.5,1.2,1.2,1.2c0.7,0,1.2-0.5,1.2-1.2v-7.3c0-0.7-0.5-1.2-1.2-1.2
	C36.4,45.9,35.8,46.4,35.8,47.1z"/>
<path class="st0" d="M55.5,37.1c0-0.7-0.5-1.2-1.2-1.2h-7.3c-0.7,0-1.2,0.5-1.2,1.2c0,0.7,0.5,1.2,1.2,1.2h7.3
	C55,38.3,55.5,37.7,55.5,37.1z"/>
</svg>
