<svg width="40" height="40" viewBox="0 0 40 40" fill="none" xmlns="http://www.w3.org/2000/svg">
<g clip-path="url(#clip0)">
<path d="M12.9 27H34.2C34.7 27 35.2 26.7 35.3 26.2L40 9.7C40.1 9.3 40 9 39.8 8.7C39.6 8.4 39.2 8.2 38.9 8.2H10.2L9.3 4.4C9.2 3.9 8.8 3.5 8.2 3.5H1.2C0.5 3.5 0 4.1 0 4.7C0 5.3 0.5 5.9 1.2 5.9H7.3C7.4 6.6 11.3 23.9 11.5 24.9C10.3 25.4 9.4 26.7 9.4 28.1C9.4 30 11 31.6 12.9 31.6H34.2C34.8 31.6 35.4 31.1 35.4 30.4C35.4 29.8 34.9 29.2 34.2 29.2H12.9C12.3 29.2 11.7 28.7 11.7 28C11.7 27.5 12.2 27 12.9 27ZM37.3 10.6L33.3 24.7H13.8L10.7 10.6H37.3Z" fill="#020203"/>
<path d="M11.7 35.2C11.7 37.1 13.3 38.7 15.2 38.7C17.1 38.7 18.7 37.1 18.7 35.2C18.7 33.3 17.1 31.7 15.2 31.7C13.3 31.7 11.7 33.2 11.7 35.2ZM15.2 34C15.8 34 16.4 34.5 16.4 35.2C16.4 35.8 15.9 36.4 15.2 36.4C14.5 36.4 14 35.9 14 35.2C14.1 34.5 14.6 34 15.2 34Z" fill="#020203"/>
<path d="M28.3 35.2C28.3 37.1 29.9 38.7 31.8 38.7C33.7 38.7 35.3 37.1 35.3 35.2C35.3 33.3 33.7 31.7 31.8 31.7C29.9 31.7 28.3 33.2 28.3 35.2ZM31.8 34C32.4 34 33 34.5 33 35.2C33 35.8 32.5 36.4 31.8 36.4C31.2 36.4 30.6 35.9 30.6 35.2C30.6 34.5 31.2 34 31.8 34Z" fill="#020203"/>
</g>
<defs>
<clipPath id="clip0">
<rect width="40" height="40" fill="white"/>
</clipPath>
</defs>
</svg>
