<svg width="40" height="40" viewBox="0 0 40 40" fill="none" xmlns="http://www.w3.org/2000/svg">
<path d="M19.9 9.30005C14 9.30005 9.19995 14.1 9.19995 20C9.19995 25.9 14 30.7001 19.9 30.7001C25.8 30.7001 30.6 25.9 30.6 20C30.6 14.1 25.8 9.30005 19.9 9.30005ZM26.2999 19.8L24 21.5L24.9 24.2C25.1 24.9 24.9 25.7 24.3 26.1C24 26.3 23.6 26.4 23.3 26.4C22.9 26.4 22.6 26.3 22.3 26.1L20 24.4L17.7 26.1C17.1 26.5 16.3 26.5 15.7 26.1C15.1 25.7 14.8 24.9 15.1 24.2L16 21.5L13.7 19.8C13.1 19.4 12.8 18.6 13.1 17.9C13.3 17.2 14 16.7 14.7 16.7H17.5L18.4 14C18.6 13.3 19.3 12.8 20 12.8C20.8 12.8 21.4 13.3 21.6 14L22.5 16.7H25.2999C26.0999 16.7 26.7 17.2 26.9 17.9C27.1 18.6 26.9 19.4 26.2999 19.8Z" fill="#020203"/>
<path d="M20.3 17.8L19.9 16.5L19.5 17.8C19.3 18.5 18.6 19 17.9 19H16.5L17.6 19.8C18.2 20.2 18.5 21 18.2 21.7L17.8 23L18.9 22.2C19.5 21.8 20.3 21.8 20.9 22.2L22 23L21.6 21.7C21.4 21 21.6 20.2 22.2 19.8L23.3 19H22C21.2 19 20.6 18.6 20.3 17.8Z" fill="#020203"/>
<path d="M38.7 17.8L37.4 16.5C37.2 15.8 37 15 36.7999 14.4L37.5 11.8C37.7 11.2 37.5999 10.6 37.2999 10.1C37 9.5 36.5 9.1 35.9 9L33.2999 8.3C32.7999 7.8 32.3 7.2 31.7 6.7L31 4.1C30.7 2.9 29.4 2.2 28.2 2.5L25.6 3.2C25 3 24.2999 2.7 23.5 2.6L21.6 0.7C21.2 0.2 20.6 0 20 0C19.4 0 18.7999 0.2 18.4 0.7L16.5 2.6C15.7 2.7 15 3 14.4 3.2L11.8 2.5C10.5 2.2 9.29995 2.9 8.99995 4.1L8.29995 6.7C7.79995 7.2 7.19995 7.7 6.69995 8.3L4.09995 9C3.49995 9.1 2.99995 9.5 2.69995 10C2.39995 10.5 2.29995 11.1 2.49995 11.7L3.19995 14.3C2.99995 15 2.69995 15.7 2.59995 16.5L1.29995 17.8C-4.88162e-05 19 -4.88162e-05 21 1.29995 22.2L2.59995 23.5C2.69995 24.3 2.99995 25 3.19995 25.6L2.49995 28.2C2.29995 28.8 2.39995 29.4 2.69995 29.9C2.99995 30.5 3.49995 30.9 4.09995 31L6.69995 31.7C7.19995 32.2 7.69995 32.8 8.29995 33.3L8.99995 35.9C9.19995 36.5 9.49995 37 10.1 37.3C10.6 37.6 11.2 37.7 11.8 37.5L14.4 36.8C15.1 37 15.8 37.3 16.5 37.4L18.4 39.3C18.7999 39.7 19.4 40 20 40C20.6 40 21.2 39.8 21.6 39.3L23.5 37.3C24.2 37.2 24.9 37 25.6 36.7L28.2 37.4C28.8 37.6 29.4 37.5 29.9 37.2C30.4 36.9 30.7999 36.4 31 35.8L31.7 33.2C32.2 32.7 32.7999 32.2 33.2999 31.6L35.9 30.9C36.5 30.7 37 30.4 37.2999 29.8C37.5999 29.3 37.7 28.7 37.5 28.1L36.7999 25.5C37 24.8 37.3 24.1 37.4 23.4L38.7 22.1C40 21 40 19 38.7 17.8ZM19.9 33C12.7 33 6.89995 27.2 6.89995 20C6.89995 12.8 12.7 7 19.9 7C27.0999 7 32.9 12.8 32.9 20C32.9 27.2 27.0999 33 19.9 33Z" fill="#020203"/>
</svg>
