<svg width="26" height="26" viewBox="0 0 26 26" fill="none" xmlns="http://www.w3.org/2000/svg">
<ellipse cx="10.9999" cy="12" rx="10.9999" ry="11" fill="#FFEBD0"/>
<path d="M11 11.3232C10.0693 11.3232 9.30772 10.5616 9.30772 9.63086C9.30772 8.70009 10.0693 7.93855 11 7.93855C11.9308 7.93855 12.6923 8.70009 12.6923 9.63086C12.6923 9.96932 13.0308 10.3078 13.3692 10.3078C13.7077 10.3078 14.0462 9.96932 14.0462 9.63086C14.0462 8.19239 13.0308 6.92316 11.6769 6.5847V5.82316C11.6769 5.4847 11.3385 5.14624 11 5.14624C10.6616 5.14624 10.3231 5.4847 10.3231 5.82316V6.5847C8.96926 6.92316 7.86926 8.10778 7.86926 9.63086C7.86926 11.3232 9.2231 12.7616 11 12.7616C11.9308 12.7616 12.6923 13.5232 12.6923 14.4539C12.6923 15.3847 11.9308 16.1462 11 16.1462C10.0693 16.1462 9.30772 15.3847 9.30772 14.4539C9.30772 14.1155 8.96926 13.777 8.6308 13.777C8.29234 13.777 7.95388 14.1155 7.95388 14.4539C7.95388 15.8924 8.96926 17.1616 10.3231 17.5001V18.2616C10.3231 18.6001 10.6616 18.9385 11 18.9385C11.3385 18.9385 11.6769 18.6001 11.6769 18.2616V17.5001C13.0308 17.1616 14.0462 15.977 14.0462 14.4539C14.1308 12.677 12.6923 11.3232 11 11.3232Z" fill="#F7B55B"/>
<path d="M11.0001 23C8.03854 23 5.33086 21.8154 3.21549 19.7846C1.10012 17.7538 0.00012207 14.9615 0.00012207 12C0.00012207 9.03846 1.18473 6.33077 3.21549 4.21538C5.24625 2.1 8.03854 1 11.0001 1C11.8462 1 13.4539 1.08462 15.2308 1.84615C15.6539 2.01538 15.9923 2.18462 16.2462 2.35385C16.9231 2.69231 17.8539 3.28462 18.7846 4.21538C20.2231 5.65385 20.9 7.09231 21.1539 7.76923C21.6615 9.12308 22 10.4769 22 12C22 14.9615 20.8154 17.6692 18.7846 19.7846C16.7539 21.9 13.9616 23 11.0001 23ZM11.0001 2.35385C5.66932 2.35385 1.35396 6.66923 1.35396 12C1.35396 17.3308 5.66932 21.6462 11.0001 21.6462C16.3308 21.6462 20.6462 17.3308 20.6462 12C20.6462 8.36154 18.3616 4.97692 15.4 3.45385C14.8077 3.11538 13.2001 2.35385 11.0001 2.35385Z" fill="#F7B55B"/>
<ellipse cx="12.9999" cy="13" rx="10.9999" ry="11" fill="#FFEBD0"/>
<path d="M13 12.3232C12.0693 12.3232 11.3077 11.5616 11.3077 10.6309C11.3077 9.70009 12.0693 8.93855 13 8.93855C13.9308 8.93855 14.6923 9.70009 14.6923 10.6309C14.6923 10.9693 15.0308 11.3078 15.3692 11.3078C15.7077 11.3078 16.0462 10.9693 16.0462 10.6309C16.0462 9.19239 15.0308 7.92316 13.6769 7.5847V6.82316C13.6769 6.4847 13.3385 6.14624 13 6.14624C12.6616 6.14624 12.3231 6.4847 12.3231 6.82316V7.5847C10.9693 7.92316 9.86926 9.10778 9.86926 10.6309C9.86926 12.3232 11.2231 13.7616 13 13.7616C13.9308 13.7616 14.6923 14.5232 14.6923 15.4539C14.6923 16.3847 13.9308 17.1462 13 17.1462C12.0693 17.1462 11.3077 16.3847 11.3077 15.4539C11.3077 15.1155 10.9693 14.777 10.6308 14.777C10.2923 14.777 9.95388 15.1155 9.95388 15.4539C9.95388 16.8924 10.9693 18.1616 12.3231 18.5001V19.2616C12.3231 19.6001 12.6616 19.9385 13 19.9385C13.3385 19.9385 13.6769 19.6001 13.6769 19.2616V18.5001C15.0308 18.1616 16.0462 16.977 16.0462 15.4539C16.1308 13.677 14.6923 12.3232 13 12.3232Z" fill="#F7B55B"/>
<path d="M13.0001 24C10.0385 24 7.33086 22.8154 5.21549 20.7846C3.10012 18.7538 2.00012 15.9615 2.00012 13C2.00012 10.0385 3.18473 7.33077 5.21549 5.21538C7.24625 3.1 10.0385 2 13.0001 2C13.8462 2 15.4539 2.08462 17.2308 2.84615C17.6539 3.01538 17.9923 3.18462 18.2462 3.35385C18.9231 3.69231 19.8539 4.28462 20.7846 5.21538C22.2231 6.65385 22.9 8.09231 23.1539 8.76923C23.6615 10.1231 24 11.4769 24 13C24 15.9615 22.8154 18.6692 20.7846 20.7846C18.7539 22.9 15.9616 24 13.0001 24ZM13.0001 3.35385C7.66932 3.35385 3.35396 7.66923 3.35396 13C3.35396 18.3308 7.66932 22.6462 13.0001 22.6462C18.3308 22.6462 22.6462 18.3308 22.6462 13C22.6462 9.36154 20.3616 5.97692 17.4 4.45385C16.8077 4.11538 15.2001 3.35385 13.0001 3.35385Z" fill="#F7B55B"/>
<ellipse cx="14.9999" cy="14" rx="10.9999" ry="11" fill="#FFEBD0"/>
<path d="M15 13.3232C14.0693 13.3232 13.3077 12.5616 13.3077 11.6309C13.3077 10.7001 14.0693 9.93855 15 9.93855C15.9308 9.93855 16.6923 10.7001 16.6923 11.6309C16.6923 11.9693 17.0308 12.3078 17.3692 12.3078C17.7077 12.3078 18.0462 11.9693 18.0462 11.6309C18.0462 10.1924 17.0308 8.92316 15.6769 8.5847V7.82316C15.6769 7.4847 15.3385 7.14624 15 7.14624C14.6616 7.14624 14.3231 7.4847 14.3231 7.82316V8.5847C12.9693 8.92316 11.8693 10.1078 11.8693 11.6309C11.8693 13.3232 13.2231 14.7616 15 14.7616C15.9308 14.7616 16.6923 15.5232 16.6923 16.4539C16.6923 17.3847 15.9308 18.1462 15 18.1462C14.0693 18.1462 13.3077 17.3847 13.3077 16.4539C13.3077 16.1155 12.9693 15.777 12.6308 15.777C12.2923 15.777 11.9539 16.1155 11.9539 16.4539C11.9539 17.8924 12.9693 19.1616 14.3231 19.5001V20.2616C14.3231 20.6001 14.6616 20.9385 15 20.9385C15.3385 20.9385 15.6769 20.6001 15.6769 20.2616V19.5001C17.0308 19.1616 18.0462 17.977 18.0462 16.4539C18.1308 14.677 16.6923 13.3232 15 13.3232Z" fill="#F7B55B"/>
<path d="M15.0001 25C12.0385 25 9.33086 23.8154 7.21549 21.7846C5.10012 19.7538 4.00012 16.9615 4.00012 14C4.00012 11.0385 5.18473 8.33077 7.21549 6.21538C9.24625 4.1 12.0385 3 15.0001 3C15.8462 3 17.4539 3.08462 19.2308 3.84615C19.6539 4.01538 19.9923 4.18462 20.2462 4.35385C20.9231 4.69231 21.8539 5.28462 22.7846 6.21538C24.2231 7.65385 24.9 9.09231 25.1539 9.76923C25.6615 11.1231 26 12.4769 26 14C26 16.9615 24.8154 19.6692 22.7846 21.7846C20.7539 23.9 17.9616 25 15.0001 25ZM15.0001 4.35385C9.66932 4.35385 5.35396 8.66923 5.35396 14C5.35396 19.3308 9.66932 23.6462 15.0001 23.6462C20.3308 23.6462 24.6462 19.3308 24.6462 14C24.6462 10.3615 22.3616 6.97692 19.4 5.45385C18.8077 5.11538 17.2001 4.35385 15.0001 4.35385Z" fill="#F7B55B"/>
<path d="M18 5L21 2M24 5L21 2M21 2V6V13" stroke="#487DBF" stroke-width="3" stroke-linecap="round" stroke-linejoin="round"/>
</svg>
