<?xml version="1.0" encoding="utf-8"?>
<!-- Generator: Adobe Illustrator 24.1.2, SVG Export Plug-In . SVG Version: 6.00 Build 0)  -->
<svg version="1.1" id="Слой_1" xmlns="http://www.w3.org/2000/svg" xmlns:xlink="http://www.w3.org/1999/xlink" x="0px" y="0px"
	 viewBox="0 0 62 62" style="enable-background:new 0 0 62 62;" xml:space="preserve">
<style type="text/css">
	.st0{fill:#F7B55B;}
</style>
<path class="st0" d="M62,22.3c0-3.2-2.6-5.9-5.9-5.9s-5.9,2.6-5.9,5.9c0,1.6,0.6,3,1.6,4c-1.8,2-4.3,3.2-7.2,3.2
	c-4.6,0-8.5-3.3-9.5-7.6c1.1-1.1,1.8-2.5,1.8-4.2c0-3.2-2.6-5.9-5.9-5.9s-5.9,2.6-5.9,5.9c0,1.6,0.7,3.1,1.8,4.2
	c-0.9,4.3-4.8,7.6-9.5,7.6c-2.9,0-5.4-1.2-7.2-3.2c1-1.1,1.6-2.5,1.6-4c0-3.2-2.6-5.9-5.9-5.9S0,19,0,22.3c0,2.8,2,5.2,4.6,5.7
	c0.6,5.2,2,11.7,4.8,16.1v5.4c0,1,0.8,1.8,1.8,1.8h39.5c1,0,1.8-0.8,1.8-1.8v-5.4c2.8-4.4,4.1-10.9,4.8-16.1
	C60,27.4,62,25.1,62,22.3z M53.9,22.3c0-1.2,1-2.2,2.2-2.2s2.2,1,2.2,2.2c0,1.2-1,2.2-2.2,2.2S53.9,23.5,53.9,22.3z M28.8,17.7
	c0-1.2,1-2.2,2.2-2.2s2.2,1,2.2,2.2c0,1.2-1,2.2-2.2,2.2S28.8,19,28.8,17.7z M3.7,22.3c0-1.2,1-2.2,2.2-2.2s2.2,1,2.2,2.2
	c0,1.2-1,2.2-2.2,2.2S3.7,23.5,3.7,22.3z M13.1,47.7v-2.3h35.9v2.3H13.1z M49.8,41.8H12.2c-1.9-3.2-3-7.8-3.7-11.9
	c2.4,2.1,5.4,3.3,8.8,3.3c6.1,0,11.2-4.1,12.8-9.6c0.3,0,0.5,0.1,0.8,0.1s0.5,0,0.8-0.1c1.6,5.5,6.7,9.6,12.8,9.6
	c3.4,0,6.5-1.3,8.8-3.3C52.8,33.9,51.7,38.5,49.8,41.8z"/>
</svg>
