<?xml version="1.0" encoding="utf-8"?>
<!-- Generator: Adobe Illustrator 24.1.2, SVG Export Plug-In . SVG Version: 6.00 Build 0)  -->
<svg version="1.1" id="Слой_1" xmlns="http://www.w3.org/2000/svg" xmlns:xlink="http://www.w3.org/1999/xlink" x="0px" y="0px"
	 viewBox="0 0 102 102" style="enable-background:new 0 0 102 102;" xml:space="preserve">
<style type="text/css">
	.st0{fill:#8DCEF3;}
</style>
<path class="st0" d="M101.1,48.7l-3.4-6.1c-0.5-1-1.7-1.3-2.7-0.7c-1,0.5-1.3,1.7-0.7,2.7l3.4,6.1c0.2,0.3,0.1,0.6,0.1,0.7
	c0,0.1-0.2,0.4-0.4,0.6l-5.3,2.9c-0.5,0.3-1.1,0.1-1.3-0.4l-1.3-2.4c0,0,0,0,0,0L75.3,27.5c-0.2-0.3-0.1-0.6-0.1-0.7
	c0-0.1,0.2-0.4,0.4-0.6l5.3-2.9c0.5-0.3,1.1-0.1,1.3,0.4l3.1,5.5c0.5,1,1.7,1.3,2.7,0.7c1-0.5,1.3-1.7,0.7-2.7l-3.1-5.5
	c-1.3-2.3-4.3-3.2-6.7-1.9l-5.3,2.9c-1.1,0.6-2,1.7-2.3,3c-0.3,1.2-0.2,2.4,0.3,3.5l-2.9,0.8c-1.2,0.4-2,0.6-2.4,0.6c0,0,0,0,0,0
	c-0.3,0-0.6-0.1-1.5-0.5c-0.4-0.2-0.9-0.3-1.5-0.6l-5.2-1.8c-2.9-1-4.2-0.9-6-0.8l-8.8,0.8c-4,0.4-6.6,1.3-8,2.8l-5-1.5
	c0.5-1.1,0.7-2.3,0.3-3.5c-0.4-1.3-1.2-2.3-2.3-3l-5.3-2.9c-2.4-1.3-5.4-0.5-6.7,1.9l-15.3,27c-0.7,1.2-0.8,2.5-0.5,3.8
	c0.4,1.3,1.2,2.3,2.3,3l5.3,2.9c0.8,0.4,1.6,0.6,2.4,0.6c1.7,0,3.4-0.9,4.3-2.5l0.6-1c1.5,0.7,2.8,1.7,3.7,2.8
	c-0.9,1-1.4,2.2-1.5,3.6c-0.2,1.8,0.3,3.5,1.4,4.9c1.1,1.4,2.7,2.2,4.4,2.4c-0.2,1.8,0.3,3.5,1.4,4.9c1.1,1.4,2.7,2.3,4.4,2.4
	c-0.2,1.8,0.3,3.5,1.4,4.9c1.1,1.4,2.7,2.2,4.4,2.5c-0.2,1.8,0.3,3.5,1.4,4.9c1.3,1.6,3.2,2.5,5.2,2.5c1.5,0,2.9-0.5,4.2-1.5
	l4.1-3.3c0.3-0.3,0.6-0.6,0.9-0.9l2.4,1.9c1.2,1,2.7,1.5,4.1,1.5c2,0,3.9-0.9,5.2-2.5c0.7-0.9,1.1-1.9,1.3-2.9
	c0.7,0.2,1.4,0.4,2.2,0.4c0.2,0,0.5,0,0.8,0c1.8-0.2,3.4-1.1,4.5-2.5c1.1-1.4,1.6-3.1,1.4-4.9c1.7-0.2,3.3-1,4.4-2.4
	c1.1-1.4,1.6-3.2,1.4-4.9c1.8-0.2,3.3-1.1,4.4-2.4c1.1-1.4,1.6-3.1,1.4-4.9c-0.1-1.3-0.7-2.6-1.5-3.6c0.9-1.2,2.2-2.1,3.7-2.8l0.6,1
	c0.9,1.6,2.6,2.5,4.3,2.5c0.8,0,1.6-0.2,2.4-0.6l5.3-2.9c1.1-0.6,2-1.7,2.3-3C101.9,51.2,101.7,49.9,101.1,48.7L101.1,48.7z
	 M11.4,54.6c-0.3,0.5-0.9,0.6-1.3,0.4L4.7,52c-0.3-0.2-0.4-0.4-0.4-0.6c0-0.1-0.1-0.4,0.1-0.7l15.3-27c0.2-0.3,0.5-0.5,0.8-0.5
	c0.2,0,0.3,0,0.5,0.1l5.3,2.9c0,0,0,0,0,0c0.3,0.2,0.4,0.4,0.4,0.6c0,0.1,0.1,0.4-0.1,0.7L11.4,54.6z M25.8,64.8
	c-0.6,0.4-1.3,0.6-2,0.6c-0.7-0.1-1.4-0.4-1.8-1c-0.4-0.6-0.6-1.3-0.6-2c0.1-0.7,0.4-1.4,1-1.8l7.4-5.9c1.2-0.9,2.9-0.7,3.8,0.4
	c0.4,0.6,0.6,1.3,0.6,2c-0.1,0.7-0.4,1.4-1,1.8c0,0,0,0,0,0L25.8,64.8C25.8,64.8,25.8,64.8,25.8,64.8z M27.9,71.6
	c-0.4-0.6-0.6-1.3-0.6-2c0.1-0.7,0.4-1.4,1-1.8l0,0c0,0,0,0,0,0c0,0,0,0,0,0L39,59.3c1.2-0.9,2.9-0.7,3.8,0.4c0.4,0.6,0.6,1.3,0.6,2
	c-0.1,0.7-0.4,1.4-1,1.8l-10.7,8.5C30.5,73,28.8,72.8,27.9,71.6L27.9,71.6z M35.6,79.9c-0.7-0.1-1.4-0.4-1.8-1
	c-0.4-0.6-0.6-1.3-0.6-2c0.1-0.7,0.4-1.4,1-1.8c0,0,0,0,0,0l7.4-5.9c0,0,0,0,0,0c1.2-0.9,2.9-0.7,3.8,0.4c0.4,0.6,0.6,1.3,0.6,2
	c-0.1,0.7-0.4,1.4-1,1.8l-7.4,5.9C37,79.8,36.3,80,35.6,79.9L35.6,79.9z M48.5,81.5c-0.1,0.7-0.4,1.4-1,1.8l-4.1,3.3
	c-1.2,0.9-2.9,0.7-3.8-0.4c-0.4-0.6-0.6-1.3-0.6-2s0.4-1.4,1-1.8c0,0,0,0,0,0l4.1-3.3c0,0,0,0,0,0c1.2-0.9,2.9-0.7,3.8,0.4
	C48.4,80.1,48.6,80.8,48.5,81.5z M79.9,64.3c-0.4,0.6-1.1,0.9-1.8,1c-0.7,0.1-1.4-0.1-2-0.6c0,0,0,0,0,0c0,0,0,0,0,0l-5.3-4.2
	c-0.9-0.7-2.1-0.5-2.8,0.3c-0.7,0.9-0.5,2.1,0.3,2.8l5.3,4.2c1.2,0.9,1.4,2.6,0.4,3.8c-0.9,1.2-2.6,1.4-3.8,0.4l-5.7-4.6
	c-0.9-0.7-2.1-0.5-2.8,0.3c-0.7,0.9-0.5,2.1,0.3,2.8l5.7,4.6c0.6,0.4,0.9,1.1,1,1.8c0.1,0.7-0.1,1.4-0.6,2c-0.4,0.6-1.1,0.9-1.8,1
	c-0.7,0.1-1.4-0.1-2-0.6l-2.9-2.3c0,0,0,0,0,0l-2.4-1.9l-0.5-0.4c-0.9-0.7-2.1-0.5-2.8,0.3c-0.1,0.1-0.2,0.2-0.2,0.3
	c-0.3,0.6-0.3,1.2,0,1.8c0.1,0.3,0.3,0.5,0.5,0.7l2.9,2.3c1.2,0.9,1.3,2.6,0.4,3.8c-0.9,1.2-2.6,1.4-3.8,0.4l-3.3-2.6
	c0.1-1.7-0.4-3.3-1.4-4.7c-0.7-0.8-1.5-1.5-2.4-1.9c0.7-0.9,1.1-2,1.2-3.1c0.2-1.8-0.3-3.5-1.4-4.9c-0.7-0.8-1.5-1.4-2.4-1.9
	c0.7-0.9,1.1-2,1.2-3.1c0.2-1.8-0.3-3.5-1.4-4.9c-1.9-2.4-5.1-3.1-7.8-2c-0.2-1-0.7-1.9-1.3-2.7c-2.3-2.9-6.5-3.3-9.4-1l-5.3,4.2
	c-1.2-1.5-2.8-2.8-4.8-3.7l10.9-19.3l5.8,1.7c0,0.3,0.1,0.6,0.2,1c1.4,5.8,6.7,8.5,13.9,7c6-1.2,8.5,0.6,13.5,4.2
	c0.5,0.4,1,0.8,1.6,1.2c3.6,2.6,7.4,5.6,9.9,7.6l6.4,5.1c0.6,0.4,0.9,1.1,1,1.8C80.6,63.1,80.4,63.8,79.9,64.3L79.9,64.3z
	 M79.9,55.8l-4.3-3.4c-2.6-2.1-6.4-5.1-10.1-7.7c-0.6-0.4-1.1-0.8-1.6-1.1c-5.1-3.7-8.8-6.4-16.6-4.9c-2.4,0.5-8,1-9.3-4.1
	c-0.2-0.7,0-1,0.1-1.1c0.3-0.4,1.3-1.3,5.5-1.6l8.8-0.8c1.4-0.1,2.2-0.2,4.4,0.6l5.2,1.8c0.6,0.2,1,0.4,1.4,0.5
	c2.5,0.9,3.2,0.9,6.4,0l3.8-1.1l10.9,19.3C82.7,53,81.1,54.2,79.9,55.8z"/>
<path class="st0" d="M91.5,37.9c1.1,0,2-0.9,2-2s-0.9-2-2-2c-1.1,0-2,0.9-2,2v0C89.5,37,90.4,37.9,91.5,37.9z"/>
</svg>
