<?xml version="1.0" encoding="utf-8"?>
<!-- Generator: Adobe Illustrator 24.1.2, SVG Export Plug-In . SVG Version: 6.00 Build 0)  -->
<svg version="1.1" id="Слой_1" xmlns="http://www.w3.org/2000/svg" xmlns:xlink="http://www.w3.org/1999/xlink" x="0px" y="0px"
	 viewBox="0 0 62 62" style="enable-background:new 0 0 62 62;" xml:space="preserve">
<style type="text/css">
	.st0{fill:#8DCEF3;}
</style>
<path class="st0" d="M61.5,30.2l-2.1-3.7c-0.3-0.6-1.1-0.8-1.6-0.5c-0.6,0.3-0.8,1.1-0.5,1.6l2.1,3.7c0.1,0.2,0.1,0.4,0.1,0.5
	c0,0.1-0.1,0.2-0.3,0.3L55.9,34c-0.3,0.2-0.7,0.1-0.8-0.2l-0.8-1.5c0,0,0,0,0,0l-8.5-15c-0.1-0.2-0.1-0.4-0.1-0.5
	c0-0.1,0.1-0.2,0.3-0.3l3.2-1.8c0.3-0.2,0.7-0.1,0.8,0.2l1.9,3.3c0.3,0.6,1.1,0.8,1.6,0.5c0.6-0.3,0.8-1.1,0.5-1.6l-1.9-3.3
	c-0.8-1.4-2.6-1.9-4.1-1.1l-3.2,1.8c-0.7,0.4-1.2,1-1.4,1.8c-0.2,0.7-0.1,1.5,0.2,2.2l-1.8,0.5c-0.8,0.2-1.2,0.3-1.5,0.3
	c0,0,0,0,0,0c-0.2,0-0.4-0.1-0.9-0.3c-0.2-0.1-0.6-0.2-0.9-0.3l-3.2-1.1c-1.7-0.6-2.5-0.6-3.7-0.5l-5.4,0.5c-2.5,0.2-4,0.8-4.9,1.7
	l-3.1-0.9c0.3-0.7,0.4-1.4,0.2-2.1c-0.2-0.8-0.7-1.4-1.4-1.8l-3.2-1.8c-1.4-0.8-3.3-0.3-4.1,1.1L0.4,30.2c-0.4,0.7-0.5,1.5-0.3,2.3
	c0.2,0.8,0.7,1.4,1.4,1.8l3.2,1.8c0.5,0.3,1,0.4,1.5,0.4c1.1,0,2.1-0.5,2.6-1.5l0.3-0.6c0.9,0.4,1.7,1,2.3,1.7
	c-0.5,0.6-0.9,1.4-0.9,2.2c-0.1,1.1,0.2,2.1,0.9,3c0.7,0.8,1.6,1.4,2.7,1.5c-0.1,1.1,0.2,2.1,0.9,3c0.7,0.9,1.7,1.4,2.7,1.5
	c-0.1,1.1,0.2,2.1,0.9,3c0.7,0.8,1.6,1.4,2.7,1.5c-0.1,1.1,0.2,2.1,0.9,3c0.8,1,2,1.5,3.2,1.5c0.9,0,1.8-0.3,2.5-0.9l2.5-2
	c0.2-0.2,0.4-0.3,0.5-0.5l1.4,1.2c0.7,0.6,1.6,0.9,2.5,0.9c1.2,0,2.4-0.5,3.2-1.5c0.4-0.5,0.7-1.1,0.8-1.8c0.4,0.1,0.9,0.2,1.3,0.2
	c0.2,0,0.3,0,0.5,0c1.1-0.1,2.1-0.7,2.7-1.5c0.7-0.8,1-1.9,0.9-3c1-0.1,2-0.6,2.7-1.5c0.7-0.9,1-1.9,0.9-3c1.1-0.1,2-0.7,2.7-1.5
	c0.7-0.8,1-1.9,0.9-3c-0.1-0.8-0.4-1.6-0.9-2.2c0.5-0.7,1.3-1.3,2.2-1.7L53,35c0.6,1,1.6,1.5,2.6,1.5c0.5,0,1-0.1,1.5-0.4l3.2-1.8
	c0.7-0.4,1.2-1,1.4-1.8C62,31.7,61.9,30.9,61.5,30.2L61.5,30.2z M6.8,33.8c-0.2,0.3-0.5,0.4-0.8,0.2l-3.2-1.8
	c-0.2-0.1-0.2-0.3-0.3-0.3c0-0.1-0.1-0.3,0.1-0.5l9.3-16.5c0.1-0.2,0.3-0.3,0.5-0.3c0.1,0,0.2,0,0.3,0.1l3.2,1.8c0,0,0,0,0,0
	c0.2,0.1,0.2,0.3,0.3,0.3c0,0.1,0.1,0.3-0.1,0.5L6.8,33.8z M15.6,40c-0.3,0.3-0.8,0.4-1.2,0.3c-0.4,0-0.8-0.3-1.1-0.6
	c-0.3-0.3-0.4-0.8-0.3-1.2c0-0.4,0.3-0.8,0.6-1.1l4.5-3.6c0.7-0.6,1.7-0.5,2.3,0.3c0.3,0.3,0.4,0.8,0.3,1.2c0,0.4-0.3,0.8-0.6,1.1
	c0,0,0,0,0,0L15.6,40C15.6,40,15.6,40,15.6,40z M16.8,44.2c-0.3-0.3-0.4-0.8-0.3-1.2c0-0.4,0.3-0.8,0.6-1.1l0,0c0,0,0,0,0,0
	c0,0,0,0,0,0l6.5-5.2c0.7-0.6,1.7-0.5,2.3,0.3c0.3,0.3,0.4,0.8,0.3,1.2c0,0.4-0.3,0.8-0.6,1.1l-6.5,5.2C18.4,45,17.4,44.9,16.8,44.2
	L16.8,44.2z M21.5,49.3c-0.4,0-0.8-0.3-1.1-0.6c-0.3-0.3-0.4-0.8-0.3-1.2c0-0.4,0.3-0.8,0.6-1.1c0,0,0,0,0,0l4.5-3.6c0,0,0,0,0,0
	c0.7-0.6,1.7-0.5,2.3,0.3c0.3,0.3,0.4,0.8,0.3,1.2c0,0.4-0.3,0.8-0.6,1.1l-4.5,3.6C22.4,49.2,22,49.3,21.5,49.3L21.5,49.3z
	 M29.4,50.2c0,0.4-0.3,0.8-0.6,1.1l-2.5,2c-0.7,0.6-1.8,0.5-2.3-0.3c-0.3-0.3-0.4-0.8-0.3-1.2c0-0.4,0.3-0.8,0.6-1.1c0,0,0,0,0,0
	l2.5-2c0,0,0,0,0,0c0.7-0.6,1.7-0.5,2.3,0.3C29.4,49.4,29.5,49.8,29.4,50.2z M48.6,39.7c-0.3,0.3-0.7,0.6-1.1,0.6
	c-0.4,0-0.9-0.1-1.2-0.3c0,0,0,0,0,0c0,0,0,0,0,0l-3.2-2.6c-0.5-0.4-1.3-0.3-1.7,0.2c-0.4,0.5-0.3,1.3,0.2,1.7l3.2,2.6
	c0.7,0.6,0.8,1.6,0.3,2.3c-0.6,0.7-1.6,0.8-2.3,0.3l-3.5-2.8c-0.5-0.4-1.3-0.3-1.7,0.2c-0.4,0.5-0.3,1.3,0.2,1.7l3.5,2.8
	c0.3,0.3,0.6,0.7,0.6,1.1c0,0.4-0.1,0.9-0.3,1.2c-0.3,0.3-0.7,0.6-1.1,0.6c-0.4,0-0.9-0.1-1.2-0.3l-1.7-1.4c0,0,0,0,0,0l-1.5-1.2
	l-0.3-0.2c-0.5-0.4-1.3-0.3-1.7,0.2c-0.1,0.1-0.1,0.1-0.1,0.2c-0.2,0.3-0.2,0.7,0,1.1c0.1,0.2,0.2,0.3,0.3,0.4l1.8,1.4
	c0.7,0.6,0.8,1.6,0.3,2.3c-0.6,0.7-1.6,0.8-2.3,0.3l-2-1.6c0.1-1-0.2-2-0.9-2.9c-0.4-0.5-0.9-0.9-1.5-1.1c0.4-0.6,0.7-1.2,0.7-1.9
	c0.1-1.1-0.2-2.1-0.9-3c-0.4-0.5-0.9-0.9-1.4-1.1c0.4-0.6,0.7-1.2,0.7-1.9c0.1-1.1-0.2-2.1-0.9-3c-1.2-1.5-3.1-1.9-4.8-1.2
	c-0.1-0.6-0.4-1.2-0.8-1.7c-1.4-1.7-4-2-5.7-0.6l-3.2,2.6c-0.7-0.9-1.7-1.7-2.9-2.3l6.7-11.8l3.5,1c0,0.2,0,0.4,0.1,0.6
	c0.9,3.5,4.1,5.2,8.5,4.3c3.7-0.7,5.2,0.4,8.2,2.6c0.3,0.2,0.6,0.5,1,0.7c2.2,1.6,4.5,3.4,6,4.6l3.9,3.1c0.3,0.3,0.6,0.7,0.6,1.1
	C49,39,48.9,39.4,48.6,39.7L48.6,39.7z M48.6,34.5l-2.6-2.1c-1.6-1.3-3.9-3.1-6.1-4.7c-0.3-0.2-0.7-0.5-1-0.7
	c-3.1-2.3-5.4-3.9-10.1-3c-1.4,0.3-4.9,0.6-5.7-2.5c-0.1-0.4,0-0.6,0-0.7c0.2-0.2,0.8-0.8,3.4-1l5.4-0.5c0.9-0.1,1.3-0.1,2.7,0.3
	l3.2,1.1c0.4,0.1,0.6,0.2,0.9,0.3c1.5,0.6,1.9,0.6,3.9,0l2.3-0.7l6.6,11.8C50.3,32.8,49.3,33.6,48.6,34.5z"/>
<path class="st0" d="M55.7,23.6c0.7,0,1.2-0.5,1.2-1.2c0-0.7-0.5-1.2-1.2-1.2s-1.2,0.5-1.2,1.2v0C54.5,23.1,55,23.6,55.7,23.6z"/>
</svg>
