<?xml version="1.0" encoding="utf-8"?>
<!-- Generator: Adobe Illustrator 24.1.2, SVG Export Plug-In . SVG Version: 6.00 Build 0)  -->
<svg version="1.1" id="Слой_1" xmlns="http://www.w3.org/2000/svg" xmlns:xlink="http://www.w3.org/1999/xlink" x="0px" y="0px"
	 viewBox="0 0 102 102" style="enable-background:new 0 0 102 102;" xml:space="preserve">
<style type="text/css">
	.st0{fill:#99231C;}
</style>
<path class="st0" d="M73.6,17.1c-0.8-0.8-2-0.8-2.8,0c-0.8,0.8-0.8,2,0,2.8c0,0,0,0,0.1,0.1c0.8,0.7,2,0.7,2.7-0.1
	c0.7-0.7,0.8-1.9,0.1-2.7C73.7,17.1,73.7,17.1,73.6,17.1z"/>
<path class="st0" d="M96.2,5.8C88.4-2,75.8-2,68,5.8L52.4,21.4c-5.6,5.6-7.3,14.1-4.5,21.4l-5.2,5.2C35.5,45,27,46.7,21.4,52.4
	L5.8,68c-7.8,7.8-7.8,20.4,0,28.2c7.8,7.8,20.4,7.8,28.2,0l15.6-15.6c5.6-5.6,7.3-14.1,4.5-21.4l5.2-5.2c7.4,2.9,15.8,1.1,21.4-4.5
	L96.2,34C103.9,26.2,103.9,13.6,96.2,5.8z M46.8,77.7L31.2,93.3c-6.2,6.2-16.3,6.2-22.5,0c-6.2-6.2-6.2-16.3,0-22.5l15.6-15.6
	c4.1-4.1,10-5.6,15.4-4.1l-5.5,5.5c-2.1,0.3-4.1,1.3-5.6,2.8L12.9,75C9,78.9,9,85.2,12.9,89.1c3.9,3.9,10.2,3.9,14.1,0l15.6-15.6
	c1.5-1.5,2.5-3.5,2.8-5.6l5.5-5.5C52.3,67.8,50.8,73.7,46.8,77.7z M31.3,70.7c1.6,1.6,3.8,2.5,6.1,2.3L24.1,86.3
	c-2.3,2.3-6.1,2.3-8.5,0c-2.3-2.3-2.3-6.1,0-8.5L29,64.5C28.8,66.9,29.7,69.1,31.3,70.7z M42,65.5l-2.3,2.3c-1.6,1.6-4.1,1.6-5.6,0
	c-1.6-1.6-1.6-4.1,0-5.6l28.2-28.2c1.6-1.6,4.1-1.6,5.6,0c1.6,1.6,1.6,4.1,0,5.6L42,65.5z M77.8,46.7c-4.1,4.1-10,5.6-15.4,4.1
	l5.5-5.5C70,45,72,44,73.5,42.5c0,0,0,0,0,0l15.6-15.6c3.9-3.9,3.9-10.2,0-14.1C85.9,9.6,80.9,9,77,11.3c-0.9,0.6-1.3,1.8-0.7,2.7
	c0.6,0.9,1.8,1.3,2.7,0.7c2.4-1.4,5.3-1,7.3,0.9c2.3,2.3,2.3,6.1,0,8.5L73,37.4c0.1-2.4-0.7-4.6-2.3-6.1c-1.5-1.5-3.5-2.3-5.6-2.3
	c-0.2,0-0.3,0-0.5,0l3.4-3.4c0.8-0.8,0.8-2,0-2.8c-0.8-0.8-2-0.8-2.8,0l-5.7,5.7c-1.5,1.5-2.5,3.5-2.8,5.6l-5.5,5.5
	c-1.4-5.4,0.1-11.3,4.1-15.4L70.8,8.6c6.2-6.2,16.3-6.2,22.5,0c6.2,6.2,6.2,16.3,0,22.5L77.8,46.7z"/>
<path class="st0" d="M32.7,32.6c0.8-0.8,0.8-2,0-2.8l-8.5-8.5c-0.8-0.8-2-0.8-2.8,0c-0.8,0.8-0.8,2,0,2.8l8.5,8.5
	C30.6,33.4,31.9,33.4,32.7,32.6z"/>
<path class="st0" d="M10.6,41.2c0,1.1,0.9,2,2,2h12c1.1,0,2-0.9,2-2s-0.9-2-2-2h-12C11.5,39.2,10.6,40.1,10.6,41.2z"/>
<path class="st0" d="M43.2,24.5v-12c0-1.1-0.9-2-2-2s-2,0.9-2,2v12c0,1.1,0.9,2,2,2S43.2,25.6,43.2,24.5z"/>
<path class="st0" d="M69.3,69.3c-0.8,0.8-0.8,2,0,2.8l8.5,8.5c0.8,0.8,2,0.8,2.8,0c0.8-0.8,0.8-2,0-2.8l-8.5-8.5
	C71.4,68.5,70.1,68.5,69.3,69.3z"/>
<path class="st0" d="M59,77.4v12c0,1.1,0.9,2,2,2c1.1,0,2-0.9,2-2v-12c0-1.1-0.9-2-2-2C59.9,75.4,59,76.3,59,77.4z"/>
<path class="st0" d="M91.4,60.9c0-1.1-0.9-2-2-2h-12c-1.1,0-2,0.9-2,2c0,1.1,0.9,2,2,2h12C90.5,62.9,91.4,62,91.4,60.9z"/>
</svg>
