<?xml version="1.0" encoding="utf-8"?>
<!-- Generator: Adobe Illustrator 24.1.2, SVG Export Plug-In . SVG Version: 6.00 Build 0)  -->
<svg version="1.1" id="Слой_1" xmlns="http://www.w3.org/2000/svg" xmlns:xlink="http://www.w3.org/1999/xlink" x="0px" y="0px"
	 viewBox="0 0 78 78" style="enable-background:new 0 0 78 78;" xml:space="preserve">
<style type="text/css">
	.st0{fill:#99231C;}
</style>
<path class="st0" d="M56.3,13.3c-0.6-0.6-1.6-0.6-2.2,0c-0.6,0.6-0.6,1.6,0,2.2c0,0,0,0,0.1,0c0.6,0.5,1.5,0.5,2.1,0
	C56.9,14.9,56.9,14,56.3,13.3C56.4,13.4,56.3,13.4,56.3,13.3z"/>
<path class="st0" d="M73.5,4.7c-5.9-5.9-15.6-5.9-21.5,0L40.1,16.6c-4.3,4.3-5.6,10.7-3.4,16.3l-4,4c-5.6-2.2-12-0.9-16.3,3.4
	L4.5,52.3c-5.9,5.9-5.9,15.6,0,21.5c5.9,5.9,15.6,5.9,21.5,0l11.9-11.9c4.3-4.3,5.6-10.7,3.4-16.3l4-4c5.6,2.2,12.1,0.9,16.3-3.4
	l11.9-11.9C79.5,20.3,79.5,10.7,73.5,4.7z M35.8,59.7L23.8,71.7c-4.8,4.8-12.5,4.8-17.2,0c-4.8-4.8-4.8-12.5,0-17.2l11.9-11.9
	c3.1-3.1,7.6-4.3,11.8-3.2l-4.2,4.2c-1.6,0.2-3.1,1-4.3,2.2L9.8,57.7c-3,3-3,7.8,0,10.8c3,3,7.8,3,10.8,0l11.9-11.9
	c1.2-1.2,1.9-2.7,2.2-4.3l4.2-4.2C40,52.1,38.9,56.6,35.8,59.7z M23.9,54.4c1.2,1.2,2.9,1.9,4.7,1.8L18.5,66.3
	c-1.8,1.8-4.7,1.8-6.5,0c-1.8-1.8-1.8-4.7,0-6.5l10.1-10.1C22,51.5,22.7,53.1,23.9,54.4z M32.2,50.4l-1.8,1.8
	c-1.2,1.2-3.1,1.2-4.3,0c-1.2-1.2-1.2-3.1,0-4.3l21.5-21.5c1.2-1.2,3.1-1.2,4.3,0c1.2,1.2,1.2,3.1,0,4.3L32.2,50.4z M59.5,36
	c-3.1,3.1-7.6,4.3-11.8,3.2l4.2-4.2c1.6-0.2,3.1-1,4.3-2.1c0,0,0,0,0,0l11.9-11.9c3-3,3-7.8,0-10.8c-2.5-2.5-6.3-2.9-9.3-1.2
	c-0.7,0.4-1,1.4-0.5,2.1c0.4,0.7,1.4,1,2.1,0.5c1.8-1.1,4.1-0.8,5.6,0.7c1.8,1.8,1.8,4.7,0,6.5L55.9,28.9c0.1-1.8-0.6-3.5-1.8-4.7
	c-1.1-1.2-2.7-1.8-4.3-1.8c-0.1,0-0.3,0-0.4,0l2.6-2.6c0.6-0.6,0.6-1.6,0-2.2s-1.6-0.6-2.2,0L45.5,22c-1.2,1.2-1.9,2.7-2.2,4.3
	l-4.2,4.2c-1.1-4.1,0-8.7,3.2-11.8L54.2,6.9c4.8-4.8,12.5-4.8,17.2,0c4.8,4.8,4.8,12.5,0,17.2L59.5,36z"/>
<path class="st0" d="M25,25.3c0.6-0.6,0.6-1.6,0-2.2l-6.5-6.5c-0.6-0.6-1.6-0.6-2.2,0c-0.6,0.6-0.6,1.6,0,2.2l6.5,6.5
	C23.4,25.9,24.4,25.9,25,25.3z"/>
<path class="st0" d="M8.1,31.8c0,0.8,0.7,1.5,1.5,1.5h9.1c0.8,0,1.5-0.7,1.5-1.5c0-0.8-0.7-1.5-1.5-1.5H9.6
	C8.8,30.3,8.1,31,8.1,31.8z"/>
<path class="st0" d="M33.1,19.1V9.9c0-0.8-0.7-1.5-1.5-1.5c-0.8,0-1.5,0.7-1.5,1.5v9.1c0,0.8,0.7,1.5,1.5,1.5
	C32.4,20.6,33.1,19.9,33.1,19.1z"/>
<path class="st0" d="M53,53.3c-0.6,0.6-0.6,1.6,0,2.2l6.5,6.5c0.6,0.6,1.6,0.6,2.2,0c0.6-0.6,0.6-1.6,0-2.2l-6.5-6.5
	C54.6,52.7,53.6,52.7,53,53.3z"/>
<path class="st0" d="M45.1,59.5v9.1c0,0.8,0.7,1.5,1.5,1.5c0.8,0,1.5-0.7,1.5-1.5v-9.1c0-0.8-0.7-1.5-1.5-1.5
	C45.8,58,45.1,58.6,45.1,59.5z"/>
<path class="st0" d="M69.9,46.9c0-0.8-0.7-1.5-1.5-1.5h-9.1c-0.8,0-1.5,0.7-1.5,1.5c0,0.8,0.7,1.5,1.5,1.5h9.1
	C69.2,48.4,69.9,47.7,69.9,46.9z"/>
</svg>
