<svg width="69" height="69" viewBox="0 0 69 69" fill="none" xmlns="http://www.w3.org/2000/svg">
<path fill-rule="evenodd" clip-rule="evenodd" d="M34.5 7.96154C19.8432 7.96154 7.96154 19.8432 7.96154 34.5C7.96154 49.1569 19.8432 61.0385 34.5 61.0385C49.1569 61.0385 61.0385 49.1569 61.0385 34.5C61.0385 19.8432 49.1569 7.96154 34.5 7.96154ZM0 34.5C0 15.4462 15.4462 0 34.5 0C53.5539 0 69 15.4462 69 34.5C69 53.5539 53.5539 69 34.5 69C15.4462 69 0 53.5539 0 34.5Z" fill="black"/>
<path d="M34.5003 53.0767C35.966 53.0767 37.1541 51.8886 37.1541 50.4229C37.1541 48.9572 35.966 47.769 34.5003 47.769C33.0346 47.769 31.8464 48.9572 31.8464 50.4229C31.8464 51.8886 33.0346 53.0767 34.5003 53.0767Z" fill="black"/>
<path fill-rule="evenodd" clip-rule="evenodd" d="M34.5003 15.9227C35.966 15.9227 37.1541 17.1109 37.1541 18.5766V42.4612C37.1541 43.9269 35.966 45.115 34.5003 45.115C33.0346 45.115 31.8464 43.9269 31.8464 42.4612V18.5766C31.8464 17.1109 33.0346 15.9227 34.5003 15.9227Z" fill="black"/>
</svg>
