<svg width="41" height="40" viewBox="0 0 40 40" fill="none" xmlns="http://www.w3.org/2000/svg">
    <g clip-path="url(#clip0)">

        <path fill-rule="evenodd" clip-rule="evenodd"
              d="M17.1923 4.61538C14.6433 4.61538 12.5769 6.68176 12.5769 9.23077C12.5769 11.7798 14.6433 13.8462 17.1923 13.8462C19.7413 13.8462 21.8077 11.7798 21.8077 9.23077C21.8077 6.68176 19.7413 4.61538 17.1923 4.61538ZM7.96155 9.23077C7.96155 4.13276 12.0943 0 17.1923 0C22.2904 0 26.4231 4.13276 26.4231 9.23077C26.4231 14.3288 22.2904 18.4615 17.1923 18.4615C12.0943 18.4615 7.96155 14.3288 7.96155 9.23077Z"
              fill="black"/>
        <path d="M12.5769 9.23077C12.5769 6.68176 14.6433 4.61538 17.1923 4.61538C19.7413 4.61538 21.8077 6.68176 21.8077 9.23077C21.8077 11.7798 19.7413 13.8462 17.1923 13.8462C14.6433 13.8462 12.5769 11.7798 12.5769 9.23077Z"
              fill="black"/>
        <path fill-rule="evenodd" clip-rule="evenodd"
              d="M7.15521 22.1465C10.1932 20.7869 13.9763 20.0001 17.1923 20.0001C18.9629 20.0001 21.3889 20.4232 23.1099 20.8317C24.3499 21.1261 25.1166 22.37 24.8222 23.61C24.665 24.2722 24.237 24.7995 23.6834 25.1022C23.2004 25.3663 22.6218 25.4595 22.044 25.3224C20.4465 24.9432 18.4291 24.6155 17.1923 24.6155C14.6181 24.6155 11.4782 25.2683 9.04062 26.3593C7.82266 26.9044 6.90192 27.5051 6.32023 28.0818C5.74131 28.6559 5.65384 29.0395 5.65384 29.2309C5.65384 30.7559 5.79325 31.732 5.93966 32.3078H14.1154C15.3899 32.3078 16.4231 33.341 16.4231 34.6155C16.4231 35.89 15.3899 36.9232 14.1154 36.9232H4.88461C3.87729 36.9232 3.12906 36.3976 2.67733 35.9083C2.22538 35.4188 1.91957 34.8202 1.70417 34.225C1.27195 33.0305 1.03845 31.385 1.03845 29.2309C1.03845 27.4003 1.95798 25.9076 3.0705 24.8045C4.18025 23.7041 5.6354 22.8267 7.15521 22.1465Z"
              fill="black"/>
        <path d="M23.6834 25.1022C23.2004 25.3663 22.6218 25.4595 22.044 25.3224C20.4465 24.9432 18.4291 24.6155 17.1923 24.6155C14.6181 24.6155 11.4782 25.2683 9.04062 26.3593C7.82266 26.9044 6.90192 27.5051 6.32023 28.0818C5.74131 28.6559 5.65384 29.0395 5.65384 29.2309C5.65384 30.7559 5.79325 31.732 5.93966 32.3078H14.1154C15.3899 32.3078 16.4231 33.341 16.4231 34.6155L23.6834 25.1022Z"
              fill="black"/>
        <path fill-rule="evenodd" clip-rule="evenodd"
              d="M31.7144 19.9067C32.6156 19.0055 34.0768 19.0055 34.978 19.9067L38.8242 23.7529C39.7254 24.6541 39.7254 26.1153 38.8242 27.0165L26.5165 39.3242C26.0837 39.7569 25.4967 40.0001 24.8847 40.0001H21.0385C19.764 40.0001 18.7308 38.9669 18.7308 37.6924V33.8462C18.7308 33.2342 18.974 32.6472 19.4067 32.2144L31.7144 19.9067ZM33.3462 24.8021L23.3462 34.8021V35.3847H23.9288L33.9288 25.3847L33.3462 24.8021Z"
              fill="black"/>
        <path fill-rule="evenodd" clip-rule="evenodd"
              d="M33.0275 30.3187L28.4121 25.7033L30.5878 23.5276L35.2032 28.143L33.0275 30.3187Z" fill="black"/>
        <path d="M23.3462 35.3847V34.8021L33.3462 24.8021L33.9288 25.3847L23.9288 35.3847H23.3462Z" fill="black"/>

    </g>
    <defs>
        <clipPath id="clip0">
            <rect width="40" height="40" fill="white" transform="translate(0.269287)"/>
        </clipPath>
    </defs>
</svg>
