<svg width="26" height="26" viewBox="0 0 26 26" fill="none" xmlns="http://www.w3.org/2000/svg">
<path fill-rule="evenodd" clip-rule="evenodd" d="M10.5607 15.4393C11.1464 16.0251 11.1464 16.9749 10.5607 17.5607L2.56066 25.5607C1.97487 26.1464 1.02513 26.1464 0.43934 25.5607C-0.146447 24.9749 -0.146447 24.0251 0.43934 23.4393L8.43934 15.4393C9.02513 14.8536 9.97487 14.8536 10.5607 15.4393Z" fill="black" fill-opacity="0.5"/>
<path fill-rule="evenodd" clip-rule="evenodd" d="M16 3C12.134 3 9 6.13401 9 10C9 13.866 12.134 17 16 17C19.866 17 23 13.866 23 10C23 6.13401 19.866 3 16 3ZM6 10C6 4.47715 10.4772 0 16 0C21.5228 0 26 4.47715 26 10C26 15.5228 21.5228 20 16 20C10.4772 20 6 15.5228 6 10Z" fill="black" fill-opacity="0.5"/>
<path fill-rule="evenodd" clip-rule="evenodd" d="M10.8033 6.99924C11.8393 5.2085 13.7778 4 16 4C16.5523 4 17 4.44772 17 5C17 5.55228 16.5523 6 16 6C14.5207 6 13.2277 6.8025 12.5345 8.00076C12.2579 8.47881 11.6462 8.64215 11.1681 8.36559C10.6901 8.08902 10.5267 7.47729 10.8033 6.99924Z" fill="black" fill-opacity="0.5"/>
</svg>
