<svg width="26" height="26" viewBox="0 0 26 26" fill="none" xmlns="http://www.w3.org/2000/svg">
<path d="M8.70711 12.2929C8.31658 11.9024 7.68342 11.9024 7.29289 12.2929C6.90237 12.6834 6.90237 13.3166 7.29289 13.7071L8.70711 12.2929ZM11 16L10.2929 16.7071C10.6834 17.0976 11.3166 17.0976 11.7071 16.7071L11 16ZM18.7071 9.70711C19.0976 9.31658 19.0976 8.68342 18.7071 8.29289C18.3166 7.90237 17.6834 7.90237 17.2929 8.29289L18.7071 9.70711ZM7.29289 13.7071L10.2929 16.7071L11.7071 15.2929L8.70711 12.2929L7.29289 13.7071ZM11.7071 16.7071L18.7071 9.70711L17.2929 8.29289L10.2929 15.2929L11.7071 16.7071Z" fill="black" fill-opacity="0.8"/>
<path d="M3.5 17V4C3.5 4 6.2381 4.46 8.5 4C10.7619 3.54 13 1.5 13 1.5C13 1.5 15.2381 3.54 17.5 4C19.7619 4.46 22.5 4 22.5 4V17C22.5 17 21.1429 19.02 18.4286 21.32C15.7143 23.62 13 24.5 13 24.5C13 24.5 10.2857 23.62 7.57143 21.32C4.85714 19.02 3.5 17 3.5 17Z" stroke="black" stroke-opacity="0.8" stroke-width="3" stroke-linecap="round" stroke-linejoin="round"/>
</svg>
