<svg width="108" height="108" viewBox="0 0 108 108" fill="none" xmlns="http://www.w3.org/2000/svg">
<path d="M12.4615 72.6923C12.4615 72.6923 22.8461 99.6923 54 99.6923C85.154 99.6923 91.3847 72.6923 91.3847 72.6923M95.5385 58.1538L76.8462 70.6154L91.3847 72.6923M95.5385 58.1538L101.769 76.8462L91.3847 72.6923M95.5385 58.1538L91.3847 72.6923" stroke="black" stroke-opacity="0.7" stroke-width="12.4615" stroke-linecap="round" stroke-linejoin="round"/>
<path d="M97.6154 35.3077C97.6154 35.3077 87.2308 8.30769 56.0769 8.30769C24.923 8.30768 18.6922 35.3077 18.6922 35.3077M14.5384 49.8461L33.2307 37.3846L18.6922 35.3077M14.5384 49.8461L8.30767 31.1538L18.6922 35.3077M14.5384 49.8461L18.6922 35.3077" stroke="black" stroke-opacity="0.7" stroke-width="12.4615" stroke-linecap="round" stroke-linejoin="round"/>
</svg>
