<svg width="26" height="26" viewBox="0 0 26 26" fill="none" xmlns="http://www.w3.org/2000/svg">
<g clip-path="url(#clip0)">
<path d="M22.2999 0C21.7999 0 21.3999 0.4 21.3999 0.9V4.3C16.5999 -0.3 8.9999 -0.2 4.2999 4.6C2.0999 6.9 0.899902 9.9 0.899902 13C0.899902 13.5 1.2999 13.9 1.7999 13.9C2.2999 13.9 2.6999 13.5 2.6999 13C2.7999 7.4 7.3999 2.8 12.9999 2.8C15.8999 2.8 18.5999 4 20.4999 6.1L16.3999 7.5C15.8999 7.7 15.5999 8.2 15.7999 8.7C15.9999 9.2 16.4999 9.5 16.9999 9.3L22.5999 7.4C22.9999 7.3 23.1999 6.9 23.1999 6.5V0.9C23.1999 0.4 22.7999 0 22.2999 0Z" fill="#ffffff"/>
<path d="M24.1 12.1001C23.6 12.1001 23.2001 12.5001 23.2001 13.0001C23.2001 18.6001 18.6 23.2001 13 23.2001C10.1 23.2001 7.40005 22.0001 5.50005 19.9001L9.60005 18.5001C10.1 18.3001 10.4 17.8001 10.2 17.3001C10 16.9001 9.50005 16.6001 9.00005 16.8001L3.40005 18.7001C3.00005 18.8001 2.80005 19.2001 2.80005 19.6001V25.2001C2.80005 25.7001 3.20005 26.1001 3.70005 26.1001C4.20005 26.1001 4.60005 25.7001 4.60005 25.2001V21.8001C9.40005 26.4001 17 26.3001 21.6 21.5001C23.8001 19.2001 25 16.2001 25 13.1001C25.1 12.5001 24.7001 12.1001 24.1 12.1001Z" fill="#ffffff"/>
</g>
<defs>
<clipPath id="clip0">
<rect width="26" height="26" fill="white"/>
</clipPath>
</defs>
</svg>
