<svg width="69" height="69" viewBox="0 0 69 69" fill="none" xmlns="http://www.w3.org/2000/svg">
<g clip-path="url(#clip0)">
<path fill-rule="evenodd" clip-rule="evenodd" d="M34.5 61.0385C49.1568 61.0385 61.0385 49.1568 61.0385 34.5C61.0385 19.8431 49.1568 7.96153 34.5 7.96153C19.8431 7.96153 7.96154 19.8431 7.96154 34.5C7.96154 49.1568 19.8431 61.0385 34.5 61.0385ZM69 34.5C69 53.5538 53.5538 69 34.5 69C15.4461 69 1.35035e-06 53.5538 3.01609e-06 34.5C4.68183e-06 15.4461 15.4461 -4.68183e-06 34.5 -3.01609e-06C53.5538 -1.35035e-06 69 15.4461 69 34.5Z" fill="black"/>
<path d="M34.4997 15.9232C33.034 15.9232 31.8459 17.1114 31.8459 18.577C31.8459 20.0427 33.034 21.2309 34.4997 21.2309C35.9654 21.2309 37.1536 20.0427 37.1536 18.577C37.1536 17.1114 35.9654 15.9232 34.4997 15.9232Z" fill="black"/>
<path fill-rule="evenodd" clip-rule="evenodd" d="M34.4997 53.0773C33.034 53.0773 31.8459 51.8891 31.8459 50.4234L31.8459 26.5388C31.8459 25.0731 33.034 23.885 34.4997 23.885C35.9654 23.885 37.1536 25.0731 37.1536 26.5388L37.1536 50.4234C37.1536 51.8891 35.9654 53.0773 34.4997 53.0773Z" fill="black"/>
</g>
<defs>
<clipPath id="clip0">
<rect width="69" height="69" fill="white" transform="translate(69 69) rotate(-180)"/>
</clipPath>
</defs>
</svg>
