<svg width="41" height="40" viewBox="0 0 41 40" fill="none" xmlns="http://www.w3.org/2000/svg">
<g clip-path="url(#clip0)">
<path d="M2.5769 15.3847C2.5769 11.1364 6.02087 7.69238 10.2692 7.69238H30.2692C34.5176 7.69238 37.9615 11.1363 37.9615 15.3847V24.6155C37.9615 28.8638 34.5176 32.3078 30.2692 32.3078H10.2692C6.02086 32.3078 2.5769 28.8638 2.5769 24.6155V15.3847Z" stroke="black" stroke-width="4.61538" stroke-linecap="round" stroke-linejoin="round"/>
<path d="M24.8848 26.9231H15.654" stroke="black" stroke-width="3.07692" stroke-linecap="round"/>
<path d="M7.19238 16.1538C7.19238 15.3041 7.88118 14.6154 8.73084 14.6154C9.58051 14.6154 10.2693 15.3041 10.2693 16.1538C10.2693 17.0035 9.58051 17.6923 8.73084 17.6923C7.88118 17.6923 7.19238 17.0035 7.19238 16.1538Z" fill="black"/>
<path d="M11.8077 16.1538C11.8077 15.3041 12.4965 14.6154 13.3462 14.6154C14.1959 14.6154 14.8847 15.3041 14.8847 16.1538C14.8847 17.0035 14.1959 17.6923 13.3462 17.6923C12.4965 17.6923 11.8077 17.0035 11.8077 16.1538Z" fill="black"/>
<path d="M16.4232 16.1538C16.4232 15.3041 17.112 14.6154 17.9617 14.6154C18.8113 14.6154 19.5001 15.3041 19.5001 16.1538C19.5001 17.0035 18.8113 17.6923 17.9617 17.6923C17.112 17.6923 16.4232 17.0035 16.4232 16.1538Z" fill="black" />
<path d="M21.0385 16.1538C21.0385 15.3041 21.7272 14.6154 22.5769 14.6154C23.4266 14.6154 24.1154 15.3041 24.1154 16.1538C24.1154 17.0035 23.4266 17.6923 22.5769 17.6923C21.7272 17.6923 21.0385 17.0035 21.0385 16.1538Z" fill="black"/>
<path d="M25.6539 16.1538C25.6539 15.3041 26.3427 14.6154 27.1924 14.6154C28.0421 14.6154 28.7309 15.3041 28.7309 16.1538C28.7309 17.0035 28.0421 17.6923 27.1924 17.6923C26.3427 17.6923 25.6539 17.0035 25.6539 16.1538Z" fill="black" />
<path d="M30.2693 16.1538C30.2693 15.3041 30.9581 14.6154 31.8077 14.6154C32.6574 14.6154 33.3462 15.3041 33.3462 16.1538C33.3462 17.0035 32.6574 17.6923 31.8077 17.6923C30.9581 17.6923 30.2693 17.0035 30.2693 16.1538Z" fill="black" />
<path d="M7.19238 20.7693C7.19238 19.9196 7.88118 19.2308 8.73084 19.2308C9.58051 19.2308 10.2693 19.9196 10.2693 20.7693C10.2693 21.619 9.58051 22.3078 8.73084 22.3078C7.88118 22.3078 7.19238 21.619 7.19238 20.7693Z" fill="black"/>
<path d="M11.8077 20.7693C11.8077 19.9196 12.4965 19.2308 13.3462 19.2308C14.1959 19.2308 14.8847 19.9196 14.8847 20.7693C14.8847 21.619 14.1959 22.3078 13.3462 22.3078C12.4965 22.3078 11.8077 21.619 11.8077 20.7693Z" fill="black"/>
<path d="M16.4232 20.7693C16.4232 19.9196 17.112 19.2308 17.9617 19.2308C18.8113 19.2308 19.5001 19.9196 19.5001 20.7693C19.5001 21.619 18.8113 22.3078 17.9617 22.3078C17.112 22.3078 16.4232 21.619 16.4232 20.7693Z" fill="black"/>
<path d="M21.0385 20.7693C21.0385 19.9196 21.7272 19.2308 22.5769 19.2308C23.4266 19.2308 24.1154 19.9196 24.1154 20.7693C24.1154 21.619 23.4266 22.3078 22.5769 22.3078C21.7272 22.3078 21.0385 21.619 21.0385 20.7693Z" fill="black"/>
<path d="M25.6539 20.7693C25.6539 19.9196 26.3427 19.2308 27.1924 19.2308C28.0421 19.2308 28.7309 19.9196 28.7309 20.7693C28.7309 21.619 28.0421 22.3078 27.1924 22.3078C26.3427 22.3078 25.6539 21.619 25.6539 20.7693Z" fill="black"/>
<path d="M30.2693 20.7693C30.2693 19.9196 30.9581 19.2308 31.8077 19.2308C32.6574 19.2308 33.3462 19.9196 33.3462 20.7693C33.3462 21.619 32.6574 22.3078 31.8077 22.3078C30.9581 22.3078 30.2693 21.619 30.2693 20.7693Z" fill="black"/>
</g>
<defs>
<clipPath id="clip0">
<rect width="40" height="40" fill="white" transform="translate(0.269287)"/>
</clipPath>
</defs>
</svg>
