<svg width="19" height="19" viewBox="0 0 19 19" fill="none" xmlns="http://www.w3.org/2000/svg">
<path fill-rule="evenodd" clip-rule="evenodd" d="M9.5 2.19231C5.46408 2.19231 2.19231 5.46408 2.19231 9.5C2.19231 13.5359 5.46407 16.8077 9.5 16.8077C13.5359 16.8077 16.8077 13.5359 16.8077 9.5C16.8077 5.46407 13.5359 2.19231 9.5 2.19231ZM0 9.5C0 4.2533 4.2533 0 9.5 0C14.7467 0 19 4.2533 19 9.5C19 14.7467 14.7467 19 9.5 19C4.2533 19 0 14.7467 0 9.5Z" fill="black" fill-opacity="0.8"/>
<path d="M9.50006 14.6154C9.90365 14.6154 10.2308 14.2882 10.2308 13.8846C10.2308 13.481 9.90365 13.1538 9.50006 13.1538C9.09646 13.1538 8.76929 13.481 8.76929 13.8846C8.76929 14.2882 9.09646 14.6154 9.50006 14.6154Z" fill="black" fill-opacity="0.8"/>
<path fill-rule="evenodd" clip-rule="evenodd" d="M9.50006 4.38461C9.90365 4.38461 10.2308 4.71179 10.2308 5.11538V11.6923C10.2308 12.0959 9.90365 12.4231 9.50006 12.4231C9.09646 12.4231 8.76929 12.0959 8.76929 11.6923V5.11538C8.76929 4.71179 9.09646 4.38461 9.50006 4.38461Z" fill="black" fill-opacity="0.8"/>
</svg>
