<svg width="41" height="40" viewBox="0 0 41 40" fill="none" xmlns="http://www.w3.org/2000/svg">
<g clip-path="url(#clip0)">
<path fill-rule="evenodd" clip-rule="evenodd" d="M3.34619 10C3.34619 4.47714 7.82335 0 13.3462 0H27.1923C32.7152 0 37.1923 4.47715 37.1923 10V30C37.1923 35.5228 32.7152 40 27.1923 40H13.3462C7.82334 40 3.34619 35.5228 3.34619 30V10ZM13.3462 4.61538C10.3724 4.61538 7.96158 7.02615 7.96158 10V30C7.96158 32.9738 10.3724 35.3846 13.3462 35.3846H27.1923C30.1662 35.3846 32.577 32.9738 32.577 30V10C32.577 7.02617 30.1662 4.61538 27.1923 4.61538H13.3462Z" fill="black" />
<path fill-rule="evenodd" clip-rule="evenodd" d="M11.0386 10.7693C11.0386 9.91963 11.7274 9.23083 12.577 9.23083H27.9617C28.8113 9.23083 29.5001 9.91963 29.5001 10.7693C29.5001 11.619 28.8113 12.3078 27.9617 12.3078H12.577C11.7274 12.3078 11.0386 11.619 11.0386 10.7693Z" fill="black"/>
<path fill-rule="evenodd" clip-rule="evenodd" d="M11.0386 20C11.0386 19.1503 11.7274 18.4615 12.577 18.4615H27.9617C28.8113 18.4615 29.5001 19.1503 29.5001 20C29.5001 20.8497 28.8113 21.5385 27.9617 21.5385H12.577C11.7274 21.5385 11.0386 20.8497 11.0386 20Z" fill="black" />
<path fill-rule="evenodd" clip-rule="evenodd" d="M11.0386 24.6154C11.0386 23.7657 11.7274 23.0769 12.577 23.0769H27.9617C28.8113 23.0769 29.5001 23.7657 29.5001 24.6154C29.5001 25.465 28.8113 26.1538 27.9617 26.1538H12.577C11.7274 26.1538 11.0386 25.465 11.0386 24.6154Z" fill="black"/>
<path fill-rule="evenodd" clip-rule="evenodd" d="M11.0386 15.3847C11.0386 14.535 11.7274 13.8462 12.577 13.8462H27.9617C28.8113 13.8462 29.5001 14.535 29.5001 15.3847C29.5001 16.2343 28.8113 16.9231 27.9617 16.9231H12.577C11.7274 16.9231 11.0386 16.2343 11.0386 15.3847Z" fill="black" />
<path fill-rule="evenodd" clip-rule="evenodd" d="M15.6541 29.2308C15.6541 28.3812 16.3428 27.6924 17.1925 27.6924H27.9617C28.8114 27.6924 29.5002 28.3812 29.5002 29.2308C29.5002 30.0805 28.8114 30.7693 27.9617 30.7693H17.1925C16.3428 30.7693 15.6541 30.0805 15.6541 29.2308Z" fill="black"/>
</g>
<defs>
<clipPath id="clip0">
<rect width="40" height="40" fill="white" transform="translate(0.269287)"/>
</clipPath>
</defs>
</svg>
