<svg width="26" height="26" viewBox="0 0 26 26" fill="none" xmlns="http://www.w3.org/2000/svg">
<path d="M23 14L18.5 17L22 17.5L23 14Z" fill="black" fill-opacity="0.3"/>
<path d="M24.5 18.5L23 14L22 17.5L24.5 18.5Z" fill="black" fill-opacity="0.3"/>
<path d="M3 17.5C3 17.5 5.49998 24 13 24C20.5 24 22 17.5 22 17.5M23 14L18.5 17L22 17.5M23 14L24.5 18.5L22 17.5M23 14L22 17.5" stroke="black" stroke-opacity="0.3" stroke-width="3" stroke-linecap="round" stroke-linejoin="round"/>
<path d="M3.5 12L8 9L4.49998 8.5L3.5 12Z" fill="black" fill-opacity="0.3"/>
<path d="M2 7.5L3.5 12L4.49998 8.5L2 7.5Z" fill="black" fill-opacity="0.3"/>
<path d="M23.5 8.5C23.5 8.5 21 2 13.5 2C5.99998 2 4.49998 8.5 4.49998 8.5M3.5 12L8 9L4.49998 8.5M3.5 12L2 7.5L4.49998 8.5M3.5 12L4.49998 8.5" stroke="black" stroke-opacity="0.3" stroke-width="3" stroke-linecap="round" stroke-linejoin="round"/>
</svg>
