<svg width="26" height="26" viewBox="0 0 26 26" fill="none" xmlns="http://www.w3.org/2000/svg">
<path fill-rule="evenodd" clip-rule="evenodd" d="M13 3C7.47716 3 3 7.47716 3 13C3 18.5229 7.47715 23 13 23C18.5229 23 23 18.5229 23 13C23 7.47715 18.5229 3 13 3ZM0 13C0 5.8203 5.8203 0 13 0C20.1797 0 26 5.82031 26 13C26 20.1797 20.1797 26 13 26C5.82031 26 0 20.1797 0 13Z" fill="black" fill-opacity="0.7"/>
<path fill-rule="evenodd" clip-rule="evenodd" d="M13 5C13.5523 5 14 5.44772 14 6V13C14 13.2652 13.8946 13.5196 13.7071 13.7071L10.7071 16.7071C10.3166 17.0976 9.68342 17.0976 9.29289 16.7071C8.90237 16.3166 8.90237 15.6834 9.29289 15.2929L12 12.5858V6C12 5.44772 12.4477 5 13 5Z" fill="black" fill-opacity="0.7"/>
</svg>
